<?xml version="1.0" encoding="UTF-8" standalone="no"?>
<!DOCTYPE svg PUBLIC "-//W3C//DTD SVG 1.1//EN"
 "http://www.w3.org/Graphics/SVG/1.1/DTD/svg11.dtd">
<!-- Generated by graphviz version 2.38.0 (20140413.2041)
 -->
<!-- Title: systemd Pages: 1 -->
<svg width="880pt" height="188pt"
 viewBox="0.00 0.00 880.34 188.00" xmlns="http://www.w3.org/2000/svg" xmlns:xlink="http://www.w3.org/1999/xlink">
<g id="graph0" class="graph" transform="scale(1 1) rotate(0) translate(4 184)">
<title>systemd</title>
<polygon fill="white" stroke="none" points="-4,4 -4,-184 876.335,-184 876.335,4 -4,4"/>
<!-- bind9.service -->
<g id="node1" class="node"><title>bind9.service</title>
<ellipse fill="none" stroke="black" cx="530.841" cy="-90" rx="57.6901" ry="18"/>
<text text-anchor="middle" x="530.841" y="-86.3" font-family="Times,serif" font-size="14.00">bind9.service</text>
</g>
<!-- systemd&#45;journald.socket -->
<g id="node2" class="node"><title>systemd&#45;journald.socket</title>
<ellipse fill="none" stroke="black" cx="96.8414" cy="-18" rx="96.6831" ry="18"/>
<text text-anchor="middle" x="96.8414" y="-14.3" font-family="Times,serif" font-size="14.00">systemd&#45;journald.socket</text>
</g>
<!-- bind9.service&#45;&gt;systemd&#45;journald.socket -->
<g id="edge1" class="edge"><title>bind9.service&#45;&gt;systemd&#45;journald.socket</title>
<path fill="none" stroke="green" d="M480.632,-80.9017C406.294,-68.9118 266.198,-46.3155 177.397,-31.9928"/>
<polygon fill="green" stroke="green" points="177.795,-28.5118 167.365,-30.3748 176.68,-35.4225 177.795,-28.5118"/>
</g>
<!-- network.target -->
<g id="node3" class="node"><title>network.target</title>
<ellipse fill="none" stroke="black" cx="273.841" cy="-18" rx="61.99" ry="18"/>
<text text-anchor="middle" x="273.841" y="-14.3" font-family="Times,serif" font-size="14.00">network.target</text>
</g>
<!-- bind9.service&#45;&gt;network.target -->
<g id="edge2" class="edge"><title>bind9.service&#45;&gt;network.target</title>
<path fill="none" stroke="green" d="M488.691,-77.5193C444.553,-65.4972 375.117,-46.5847 327.188,-33.5302"/>
<polygon fill="green" stroke="green" points="327.872,-30.0891 317.304,-30.838 326.033,-36.8431 327.872,-30.0891"/>
</g>
<!-- system.slice -->
<g id="node4" class="node"><title>system.slice</title>
<ellipse fill="none" stroke="black" cx="407.841" cy="-18" rx="53.8905" ry="18"/>
<text text-anchor="middle" x="407.841" y="-14.3" font-family="Times,serif" font-size="14.00">system.slice</text>
</g>
<!-- bind9.service&#45;&gt;system.slice -->
<g id="edge3" class="edge"><title>bind9.service&#45;&gt;system.slice</title>
<path fill="none" stroke="green" d="M500.083,-74.6655C481.139,-64.6283 457.074,-51.0584 438.21,-39.8297"/>
<polygon fill="green" stroke="green" points="439.785,-36.6922 429.412,-34.5312 436.173,-42.6887 439.785,-36.6922"/>
</g>
<!-- bind9.service&#45;&gt;system.slice -->
<g id="edge7" class="edge"><title>bind9.service&#45;&gt;system.slice</title>
<path fill="none" stroke="black" d="M508.978,-73.2906C491.7,-62.7567 467.338,-48.8324 446.794,-37.723"/>
<polygon fill="black" stroke="black" points="448.429,-34.628 437.96,-32.996 445.126,-40.8 448.429,-34.628"/>
</g>
<!-- basic.target -->
<g id="node5" class="node"><title>basic.target</title>
<ellipse fill="none" stroke="black" cx="530.841" cy="-18" rx="51.1914" ry="18"/>
<text text-anchor="middle" x="530.841" y="-14.3" font-family="Times,serif" font-size="14.00">basic.target</text>
</g>
<!-- bind9.service&#45;&gt;basic.target -->
<g id="edge4" class="edge"><title>bind9.service&#45;&gt;basic.target</title>
<path fill="none" stroke="green" d="M530.841,-71.6966C530.841,-63.9827 530.841,-54.7125 530.841,-46.1124"/>
<polygon fill="green" stroke="green" points="534.342,-46.1043 530.841,-36.1043 527.342,-46.1044 534.342,-46.1043"/>
</g>
<!-- sysinit.target -->
<g id="node6" class="node"><title>sysinit.target</title>
<ellipse fill="none" stroke="black" cx="655.841" cy="-18" rx="55.7903" ry="18"/>
<text text-anchor="middle" x="655.841" y="-14.3" font-family="Times,serif" font-size="14.00">sysinit.target</text>
</g>
<!-- bind9.service&#45;&gt;sysinit.target -->
<g id="edge5" class="edge"><title>bind9.service&#45;&gt;sysinit.target</title>
<path fill="none" stroke="green" d="M553.153,-73.2906C570.615,-62.8269 595.163,-49.0179 615.936,-37.9455"/>
<polygon fill="green" stroke="green" points="617.663,-40.9914 624.875,-33.2295 614.397,-34.8002 617.663,-40.9914"/>
</g>
<!-- bind9.service&#45;&gt;sysinit.target -->
<g id="edge6" class="edge"><title>bind9.service&#45;&gt;sysinit.target</title>
<path fill="none" stroke="black" d="M562.009,-74.6655C581.195,-64.6518 605.578,-51.1218 624.743,-39.9084"/>
<polygon fill="black" stroke="black" points="626.59,-42.8824 633.415,-34.7782 623.026,-36.8578 626.59,-42.8824"/>
</g>
<!-- nss&#45;lookup.target -->
<g id="node7" class="node"><title>nss&#45;lookup.target</title>
<ellipse fill="none" stroke="black" cx="800.841" cy="-18" rx="71.4873" ry="18"/>
<text text-anchor="middle" x="800.841" y="-14.3" font-family="Times,serif" font-size="14.00">nss&#45;lookup.target</text>
</g>
<!-- bind9.service&#45;&gt;nss&#45;lookup.target -->
<g id="edge8" class="edge"><title>bind9.service&#45;&gt;nss&#45;lookup.target</title>
<path fill="none" stroke="#a8a8a8" d="M571.426,-77.1255C616.195,-65.0213 688.527,-46.2379 740.047,-33.3179"/>
<polygon fill="#a8a8a8" stroke="#a8a8a8" points="741.206,-36.636 750.059,-30.8158 739.508,-29.8448 741.206,-36.636"/>
</g>
<!-- nss&#45;lookup.target&#45;&gt;bind9.service -->
<g id="edge9" class="edge"><title>nss&#45;lookup.target&#45;&gt;bind9.service</title>
<path fill="none" stroke="green" d="M755.756,-32.089C708.923,-44.7007 635.775,-63.6617 585.645,-76.1816"/>
<polygon fill="green" stroke="green" points="584.8,-72.7851 575.941,-78.5959 586.49,-79.578 584.8,-72.7851"/>
</g>
<!-- multi&#45;user.target -->
<g id="node8" class="node"><title>multi&#45;user.target</title>
<ellipse fill="none" stroke="black" cx="530.841" cy="-162" rx="69.5877" ry="18"/>
<text text-anchor="middle" x="530.841" y="-158.3" font-family="Times,serif" font-size="14.00">multi&#45;user.target</text>
</g>
<!-- multi&#45;user.target&#45;&gt;bind9.service -->
<g id="edge10" class="edge"><title>multi&#45;user.target&#45;&gt;bind9.service</title>
<path fill="none" stroke="green" d="M524.963,-144.055C524.145,-136.346 523.903,-127.027 524.236,-118.364"/>
<polygon fill="green" stroke="green" points="527.736,-118.491 524.929,-108.275 520.752,-118.012 527.736,-118.491"/>
</g>
<!-- multi&#45;user.target&#45;&gt;bind9.service -->
<g id="edge11" class="edge"><title>multi&#45;user.target&#45;&gt;bind9.service</title>
<path fill="none" stroke="#a8a8a8" d="M536.72,-144.055C537.538,-136.346 537.78,-127.027 537.447,-118.364"/>
<polygon fill="#a8a8a8" stroke="#a8a8a8" points="540.931,-118.012 536.754,-108.275 533.947,-118.491 540.931,-118.012"/>
</g>
</g>
</svg>
