<?xml version="1.0" encoding="UTF-8" standalone="no"?>
<!DOCTYPE svg PUBLIC "-//W3C//DTD SVG 1.1//EN"
 "http://www.w3.org/Graphics/SVG/1.1/DTD/svg11.dtd">
<!-- Generated by graphviz version 2.38.0 (20140413.2041)
 -->
<!-- Title: systemd Pages: 1 -->
<svg width="720pt" height="188pt"
 viewBox="0.00 0.00 720.24 188.00" xmlns="http://www.w3.org/2000/svg" xmlns:xlink="http://www.w3.org/1999/xlink">
<g id="graph0" class="graph" transform="scale(1 1) rotate(0) translate(4 184)">
<title>systemd</title>
<polygon fill="white" stroke="none" points="-4,4 -4,-184 716.24,-184 716.24,4 -4,4"/>
<!-- multi&#45;user.target -->
<g id="node1" class="node"><title>multi&#45;user.target</title>
<ellipse fill="none" stroke="black" cx="244.895" cy="-162" rx="69.5877" ry="18"/>
<text text-anchor="middle" x="244.895" y="-158.3" font-family="Times,serif" font-size="14.00">multi&#45;user.target</text>
</g>
<!-- bind9.service -->
<g id="node2" class="node"><title>bind9.service</title>
<ellipse fill="none" stroke="black" cx="403.895" cy="-90" rx="57.6901" ry="18"/>
<text text-anchor="middle" x="403.895" y="-86.3" font-family="Times,serif" font-size="14.00">bind9.service</text>
</g>
<!-- multi&#45;user.target&#45;&gt;bind9.service -->
<g id="edge1" class="edge"><title>multi&#45;user.target&#45;&gt;bind9.service</title>
<path fill="none" stroke="green" d="M278.615,-146.155C303.134,-135.36 336.465,-120.686 362.584,-109.187"/>
<polygon fill="green" stroke="green" points="364.109,-112.34 371.851,-105.108 361.288,-105.934 364.109,-112.34"/>
</g>
<!-- sysinit.target -->
<g id="node3" class="node"><title>sysinit.target</title>
<ellipse fill="none" stroke="black" cx="55.895" cy="-18" rx="55.7903" ry="18"/>
<text text-anchor="middle" x="55.895" y="-14.3" font-family="Times,serif" font-size="14.00">sysinit.target</text>
</g>
<!-- bind9.service&#45;&gt;sysinit.target -->
<g id="edge2" class="edge"><title>bind9.service&#45;&gt;sysinit.target</title>
<path fill="none" stroke="green" d="M354.09,-80.7694C297.391,-71.1458 202.107,-54.2009 120.895,-36 116.3,-34.9701 111.537,-33.8422 106.774,-32.6728"/>
<polygon fill="green" stroke="green" points="107.602,-29.2721 97.0506,-30.2324 105.898,-36.0616 107.602,-29.2721"/>
</g>
<!-- systemd&#45;journald.socket -->
<g id="node4" class="node"><title>systemd&#45;journald.socket</title>
<ellipse fill="none" stroke="black" cx="226.895" cy="-18" rx="96.6831" ry="18"/>
<text text-anchor="middle" x="226.895" y="-14.3" font-family="Times,serif" font-size="14.00">systemd&#45;journald.socket</text>
</g>
<!-- bind9.service&#45;&gt;systemd&#45;journald.socket -->
<g id="edge3" class="edge"><title>bind9.service&#45;&gt;systemd&#45;journald.socket</title>
<path fill="none" stroke="green" d="M369.347,-75.3371C342.658,-64.7819 305.382,-50.04 275.655,-38.2837"/>
<polygon fill="green" stroke="green" points="276.879,-35.0038 266.292,-34.5808 274.304,-41.5132 276.879,-35.0038"/>
</g>
<!-- network.target -->
<g id="node5" class="node"><title>network.target</title>
<ellipse fill="none" stroke="black" cx="403.895" cy="-18" rx="61.99" ry="18"/>
<text text-anchor="middle" x="403.895" y="-14.3" font-family="Times,serif" font-size="14.00">network.target</text>
</g>
<!-- bind9.service&#45;&gt;network.target -->
<g id="edge4" class="edge"><title>bind9.service&#45;&gt;network.target</title>
<path fill="none" stroke="green" d="M403.895,-71.6966C403.895,-63.9827 403.895,-54.7125 403.895,-46.1124"/>
<polygon fill="green" stroke="green" points="407.395,-46.1043 403.895,-36.1043 400.395,-46.1044 407.395,-46.1043"/>
</g>
<!-- system.slice -->
<g id="node6" class="node"><title>system.slice</title>
<ellipse fill="none" stroke="black" cx="537.895" cy="-18" rx="53.8905" ry="18"/>
<text text-anchor="middle" x="537.895" y="-14.3" font-family="Times,serif" font-size="14.00">system.slice</text>
</g>
<!-- bind9.service&#45;&gt;system.slice -->
<g id="edge5" class="edge"><title>bind9.service&#45;&gt;system.slice</title>
<path fill="none" stroke="green" d="M432.313,-74.1548C452.345,-63.6902 479.358,-49.5793 501.045,-38.2501"/>
<polygon fill="green" stroke="green" points="502.735,-41.3162 509.978,-33.5838 499.493,-35.1118 502.735,-41.3162"/>
</g>
<!-- basic.target -->
<g id="node7" class="node"><title>basic.target</title>
<ellipse fill="none" stroke="black" cx="660.895" cy="-18" rx="51.1914" ry="18"/>
<text text-anchor="middle" x="660.895" y="-14.3" font-family="Times,serif" font-size="14.00">basic.target</text>
</g>
<!-- bind9.service&#45;&gt;basic.target -->
<g id="edge6" class="edge"><title>bind9.service&#45;&gt;basic.target</title>
<path fill="none" stroke="green" d="M446.595,-77.6872C486.528,-67.0662 547.808,-50.6611 600.895,-36 604.719,-34.944 608.677,-33.842 612.653,-32.7288"/>
<polygon fill="green" stroke="green" points="613.827,-36.0346 622.507,-29.9586 611.933,-29.2958 613.827,-36.0346"/>
</g>
<!-- nss&#45;lookup.target -->
<g id="node8" class="node"><title>nss&#45;lookup.target</title>
<ellipse fill="none" stroke="black" cx="403.895" cy="-162" rx="71.4873" ry="18"/>
<text text-anchor="middle" x="403.895" y="-158.3" font-family="Times,serif" font-size="14.00">nss&#45;lookup.target</text>
</g>
<!-- nss&#45;lookup.target&#45;&gt;bind9.service -->
<g id="edge7" class="edge"><title>nss&#45;lookup.target&#45;&gt;bind9.service</title>
<path fill="none" stroke="green" d="M403.895,-143.697C403.895,-135.983 403.895,-126.712 403.895,-118.112"/>
<polygon fill="green" stroke="green" points="407.395,-118.104 403.895,-108.104 400.395,-118.104 407.395,-118.104"/>
</g>
<!-- shutdown.target -->
<g id="node9" class="node"><title>shutdown.target</title>
<ellipse fill="none" stroke="black" cx="560.895" cy="-162" rx="67.6881" ry="18"/>
<text text-anchor="middle" x="560.895" y="-158.3" font-family="Times,serif" font-size="14.00">shutdown.target</text>
</g>
<!-- shutdown.target&#45;&gt;bind9.service -->
<g id="edge8" class="edge"><title>shutdown.target&#45;&gt;bind9.service</title>
<path fill="none" stroke="green" d="M527.599,-146.155C503.389,-135.36 470.477,-120.686 444.687,-109.187"/>
<polygon fill="green" stroke="green" points="446.095,-105.983 435.536,-105.108 443.244,-112.377 446.095,-105.983"/>
</g>
</g>
</svg>
