<?xml version="1.0" encoding="UTF-8" standalone="no"?>
<!DOCTYPE svg PUBLIC "-//W3C//DTD SVG 1.1//EN"
 "http://www.w3.org/Graphics/SVG/1.1/DTD/svg11.dtd">
<!-- Generated by graphviz version 2.38.0 (20140413.2041)
 -->
<!-- Title: systemd Pages: 1 -->
<svg width="1397pt" height="404pt"
 viewBox="0.00 0.00 1397.04 404.00" xmlns="http://www.w3.org/2000/svg" xmlns:xlink="http://www.w3.org/1999/xlink">
<g id="graph0" class="graph" transform="scale(1 1) rotate(0) translate(4 400)">
<title>systemd</title>
<polygon fill="white" stroke="none" points="-4,4 -4,-400 1393.04,-400 1393.04,4 -4,4"/>
<!-- shorewall.service -->
<g id="node1" class="node"><title>shorewall.service</title>
<ellipse fill="none" stroke="black" cx="135" cy="-378" rx="72.2875" ry="18"/>
<text text-anchor="middle" x="135" y="-374.3" font-family="Times,serif" font-size="14.00">shorewall.service</text>
</g>
<!-- network&#45;online.target -->
<g id="node2" class="node"><title>network&#45;online.target</title>
<ellipse fill="none" stroke="black" cx="887" cy="-306" rx="87.1846" ry="18"/>
<text text-anchor="middle" x="887" y="-302.3" font-family="Times,serif" font-size="14.00">network&#45;online.target</text>
</g>
<!-- shorewall.service&#45;&gt;network&#45;online.target -->
<g id="edge1" class="edge"><title>shorewall.service&#45;&gt;network&#45;online.target</title>
<path fill="none" stroke="green" d="M186.443,-365.307C196.534,-363.305 207.069,-361.417 217,-360 420.707,-330.944 661.699,-316.769 791.941,-310.761"/>
<polygon fill="green" stroke="green" points="792.446,-314.242 802.276,-310.291 792.127,-307.249 792.446,-314.242"/>
</g>
<!-- system.slice -->
<g id="node3" class="node"><title>system.slice</title>
<ellipse fill="none" stroke="black" cx="942" cy="-18" rx="53.8905" ry="18"/>
<text text-anchor="middle" x="942" y="-14.3" font-family="Times,serif" font-size="14.00">system.slice</text>
</g>
<!-- shorewall.service&#45;&gt;system.slice -->
<g id="edge2" class="edge"><title>shorewall.service&#45;&gt;system.slice</title>
<path fill="none" stroke="green" d="M122.775,-360.019C105.494,-334.297 76,-283.32 76,-235 76,-235 76,-235 76,-161 76,-120.553 64.3657,-98.4101 95,-72 124.568,-46.5089 685.897,-26.8941 878.09,-20.9016"/>
<polygon fill="green" stroke="green" points="878.431,-24.3928 888.318,-20.5847 878.214,-17.3961 878.431,-24.3928"/>
</g>
<!-- sysinit.target -->
<g id="node4" class="node"><title>sysinit.target</title>
<ellipse fill="none" stroke="black" cx="280" cy="-90" rx="55.7903" ry="18"/>
<text text-anchor="middle" x="280" y="-86.3" font-family="Times,serif" font-size="14.00">sysinit.target</text>
</g>
<!-- shorewall.service&#45;&gt;sysinit.target -->
<g id="edge3" class="edge"><title>shorewall.service&#45;&gt;sysinit.target</title>
<path fill="none" stroke="green" d="M143.636,-359.966C168.015,-311.88 237.489,-174.849 266.751,-117.133"/>
<polygon fill="green" stroke="green" points="270.009,-118.447 271.409,-107.945 263.765,-115.281 270.009,-118.447"/>
</g>
<!-- systemd&#45;journald.socket -->
<g id="node5" class="node"><title>systemd&#45;journald.socket</title>
<ellipse fill="none" stroke="black" cx="364" cy="-18" rx="96.6831" ry="18"/>
<text text-anchor="middle" x="364" y="-14.3" font-family="Times,serif" font-size="14.00">systemd&#45;journald.socket</text>
</g>
<!-- shorewall.service&#45;&gt;systemd&#45;journald.socket -->
<g id="edge4" class="edge"><title>shorewall.service&#45;&gt;systemd&#45;journald.socket</title>
<path fill="none" stroke="green" d="M103.689,-361.605C63.8086,-339.535 0,-294.868 0,-235 0,-235 0,-235 0,-161 0,-108.985 30.9382,-97.981 76,-72 130.948,-40.3189 200.74,-26.9292 257.857,-21.527"/>
<polygon fill="green" stroke="green" points="258.346,-24.9976 268.002,-20.6381 257.735,-18.0244 258.346,-24.9976"/>
</g>
<!-- basic.target -->
<g id="node6" class="node"><title>basic.target</title>
<ellipse fill="none" stroke="black" cx="155" cy="-90" rx="51.1914" ry="18"/>
<text text-anchor="middle" x="155" y="-86.3" font-family="Times,serif" font-size="14.00">basic.target</text>
</g>
<!-- shorewall.service&#45;&gt;basic.target -->
<g id="edge5" class="edge"><title>shorewall.service&#45;&gt;basic.target</title>
<path fill="none" stroke="green" d="M136.191,-359.966C139.525,-312.291 148.973,-177.185 153.068,-118.63"/>
<polygon fill="green" stroke="green" points="156.584,-118.526 153.79,-108.306 149.601,-118.038 156.584,-118.526"/>
</g>
<!-- network.target -->
<g id="node7" class="node"><title>network.target</title>
<ellipse fill="none" stroke="black" cx="1067" cy="-234" rx="61.99" ry="18"/>
<text text-anchor="middle" x="1067" y="-230.3" font-family="Times,serif" font-size="14.00">network.target</text>
</g>
<!-- network&#45;online.target&#45;&gt;network.target -->
<g id="edge6" class="edge"><title>network&#45;online.target&#45;&gt;network.target</title>
<path fill="none" stroke="green" d="M926.057,-289.811C954.205,-278.865 992.265,-264.064 1021.74,-252.601"/>
<polygon fill="green" stroke="green" points="1023.33,-255.739 1031.38,-248.853 1020.79,-249.215 1023.33,-255.739"/>
</g>
<!-- networking.service -->
<g id="node8" class="node"><title>networking.service</title>
<ellipse fill="none" stroke="black" cx="1045" cy="-162" rx="77.9862" ry="18"/>
<text text-anchor="middle" x="1045" y="-158.3" font-family="Times,serif" font-size="14.00">networking.service</text>
</g>
<!-- network&#45;online.target&#45;&gt;networking.service -->
<g id="edge7" class="edge"><title>network&#45;online.target&#45;&gt;networking.service</title>
<path fill="none" stroke="green" d="M908.513,-288.539C921.617,-278.313 938.561,-264.733 953,-252 976.918,-230.908 1002.93,-205.497 1021.17,-187.236"/>
<polygon fill="green" stroke="green" points="1023.92,-189.441 1028.49,-179.882 1018.95,-184.505 1023.92,-189.441"/>
</g>
<!-- network.target&#45;&gt;networking.service -->
<g id="edge26" class="edge"><title>network.target&#45;&gt;networking.service</title>
<path fill="none" stroke="green" d="M1061.67,-216.055C1059.22,-208.261 1056.26,-198.822 1053.51,-190.079"/>
<polygon fill="green" stroke="green" points="1056.77,-188.766 1050.43,-180.275 1050.09,-190.865 1056.77,-188.766"/>
</g>
<!-- network&#45;pre.target -->
<g id="node11" class="node"><title>network&#45;pre.target</title>
<ellipse fill="none" stroke="black" cx="1313" cy="-90" rx="76.0865" ry="18"/>
<text text-anchor="middle" x="1313" y="-86.3" font-family="Times,serif" font-size="14.00">network&#45;pre.target</text>
</g>
<!-- network.target&#45;&gt;network&#45;pre.target -->
<g id="edge29" class="edge"><title>network.target&#45;&gt;network&#45;pre.target</title>
<path fill="none" stroke="green" d="M1127.89,-230.683C1203.93,-226.361 1327.55,-214.143 1356,-180 1372.12,-160.65 1355.62,-134.232 1338.61,-115.211"/>
<polygon fill="green" stroke="green" points="1341.04,-112.684 1331.63,-107.809 1335.94,-117.486 1341.04,-112.684"/>
</g>
<!-- dhclient@eth1.service -->
<g id="node13" class="node"><title>dhclient@eth1.service</title>
<ellipse fill="none" stroke="black" cx="475" cy="-162" rx="89.8845" ry="18"/>
<text text-anchor="middle" x="475" y="-158.3" font-family="Times,serif" font-size="14.00">dhclient@eth1.service</text>
</g>
<!-- network.target&#45;&gt;dhclient@eth1.service -->
<g id="edge27" class="edge"><title>network.target&#45;&gt;dhclient@eth1.service</title>
<path fill="none" stroke="green" d="M1011.04,-226.383C907.031,-214.085 683.361,-187.637 560.369,-173.094"/>
<polygon fill="green" stroke="green" points="560.581,-169.595 550.239,-171.897 559.759,-176.547 560.581,-169.595"/>
</g>
<!-- systemd&#45;networkd.service -->
<g id="node17" class="node"><title>systemd&#45;networkd.service</title>
<ellipse fill="none" stroke="black" cx="1244" cy="-162" rx="103.182" ry="18"/>
<text text-anchor="middle" x="1244" y="-158.3" font-family="Times,serif" font-size="14.00">systemd&#45;networkd.service</text>
</g>
<!-- network.target&#45;&gt;systemd&#45;networkd.service -->
<g id="edge28" class="edge"><title>network.target&#45;&gt;systemd&#45;networkd.service</title>
<path fill="none" stroke="green" d="M1102.39,-219.003C1128.86,-208.536 1165.38,-194.092 1194.71,-182.495"/>
<polygon fill="green" stroke="green" points="1196.34,-185.613 1204.35,-178.681 1193.76,-179.104 1196.34,-185.613"/>
</g>
<!-- networking.service&#45;&gt;system.slice -->
<g id="edge13" class="edge"><title>networking.service&#45;&gt;system.slice</title>
<path fill="none" stroke="green" d="M1084.66,-146.28C1101.5,-137.824 1119.42,-125.365 1129,-108 1136.73,-93.9892 1138.65,-84.7634 1129,-72 1113.39,-51.3499 1049.32,-36.4148 1000.49,-27.7618"/>
<polygon fill="green" stroke="green" points="1001.08,-24.3126 990.63,-26.063 999.89,-31.2108 1001.08,-24.3126"/>
</g>
<!-- networking.service&#45;&gt;systemd&#45;journald.socket -->
<g id="edge15" class="edge"><title>networking.service&#45;&gt;systemd&#45;journald.socket</title>
<path fill="none" stroke="green" d="M967.241,-160.111C902.087,-156.54 808.246,-144.642 735,-108 714.194,-97.5915 717.866,-82.2887 697,-72 656.196,-51.8798 542.185,-36.654 458.904,-27.7963"/>
<polygon fill="green" stroke="green" points="459.218,-24.3101 448.907,-26.7478 458.488,-31.2719 459.218,-24.3101"/>
</g>
<!-- resolvconf.service -->
<g id="node10" class="node"><title>resolvconf.service</title>
<ellipse fill="none" stroke="black" cx="1045" cy="-90" rx="75.2868" ry="18"/>
<text text-anchor="middle" x="1045" y="-86.3" font-family="Times,serif" font-size="14.00">resolvconf.service</text>
</g>
<!-- networking.service&#45;&gt;resolvconf.service -->
<g id="edge14" class="edge"><title>networking.service&#45;&gt;resolvconf.service</title>
<path fill="none" stroke="green" d="M1045,-143.697C1045,-135.983 1045,-126.712 1045,-118.112"/>
<polygon fill="green" stroke="green" points="1048.5,-118.104 1045,-108.104 1041.5,-118.104 1048.5,-118.104"/>
</g>
<!-- networking.service&#45;&gt;network&#45;pre.target -->
<g id="edge16" class="edge"><title>networking.service&#45;&gt;network&#45;pre.target</title>
<path fill="none" stroke="green" d="M1094.47,-148.079C1139.51,-136.314 1206.09,-118.924 1253.92,-106.433"/>
<polygon fill="green" stroke="green" points="1255.03,-109.759 1263.82,-103.845 1253.26,-102.986 1255.03,-109.759"/>
</g>
<!-- bind9.service -->
<g id="node9" class="node"><title>bind9.service</title>
<ellipse fill="none" stroke="black" cx="297" cy="-306" rx="57.6901" ry="18"/>
<text text-anchor="middle" x="297" y="-302.3" font-family="Times,serif" font-size="14.00">bind9.service</text>
</g>
<!-- bind9.service&#45;&gt;system.slice -->
<g id="edge11" class="edge"><title>bind9.service&#45;&gt;system.slice</title>
<path fill="none" stroke="green" d="M354.993,-304.957C479.003,-301.53 771.008,-275.089 923,-108 938.16,-91.3344 942.326,-65.6216 943.043,-46.111"/>
<polygon fill="green" stroke="green" points="946.543,-46.0378 943.134,-36.0067 939.544,-45.9748 946.543,-46.0378"/>
</g>
<!-- bind9.service&#45;&gt;sysinit.target -->
<g id="edge8" class="edge"><title>bind9.service&#45;&gt;sysinit.target</title>
<path fill="none" stroke="green" d="M295.638,-287.849C292.697,-250.832 285.734,-163.181 282.176,-118.386"/>
<polygon fill="green" stroke="green" points="285.65,-117.924 281.369,-108.232 278.672,-118.478 285.65,-117.924"/>
</g>
<!-- bind9.service&#45;&gt;systemd&#45;journald.socket -->
<g id="edge9" class="edge"><title>bind9.service&#45;&gt;systemd&#45;journald.socket</title>
<path fill="none" stroke="green" d="M266.797,-290.507C195.094,-254.229 25.6382,-156.361 95,-72 116.386,-45.9896 196.301,-32.5409 263.516,-25.7137"/>
<polygon fill="green" stroke="green" points="264.145,-29.1691 273.758,-24.7139 263.465,-22.2022 264.145,-29.1691"/>
</g>
<!-- bind9.service&#45;&gt;basic.target -->
<g id="edge12" class="edge"><title>bind9.service&#45;&gt;basic.target</title>
<path fill="none" stroke="green" d="M285.857,-288.208C261.024,-250.782 201.018,-160.351 171.693,-116.157"/>
<polygon fill="green" stroke="green" points="174.536,-114.112 166.091,-107.714 168.703,-117.982 174.536,-114.112"/>
</g>
<!-- bind9.service&#45;&gt;network.target -->
<g id="edge10" class="edge"><title>bind9.service&#45;&gt;network.target</title>
<path fill="none" stroke="green" d="M353.285,-301.736C466.89,-294.864 731.648,-277.417 953,-252 969.71,-250.081 987.737,-247.59 1004.41,-245.109"/>
<polygon fill="green" stroke="green" points="1005.24,-248.524 1014.6,-243.57 1004.19,-241.603 1005.24,-248.524"/>
</g>
<!-- resolvconf.service&#45;&gt;system.slice -->
<g id="edge31" class="edge"><title>resolvconf.service&#45;&gt;system.slice</title>
<path fill="none" stroke="green" d="M1021.11,-72.7646C1006.9,-63.1087 988.714,-50.7475 973.36,-40.3129"/>
<polygon fill="green" stroke="green" points="974.938,-37.1529 964.699,-34.4268 971.003,-42.9425 974.938,-37.1529"/>
</g>
<!-- resolvconf.service&#45;&gt;systemd&#45;journald.socket -->
<g id="edge30" class="edge"><title>resolvconf.service&#45;&gt;systemd&#45;journald.socket</title>
<path fill="none" stroke="green" d="M982.69,-79.78C963.562,-77.0946 942.435,-74.2743 923,-72 761.271,-53.0743 572.608,-36.2821 461.012,-26.8966"/>
<polygon fill="green" stroke="green" points="461.047,-23.3873 450.789,-26.0394 460.462,-30.3628 461.047,-23.3873"/>
</g>
<!-- ebtables.service -->
<g id="node19" class="node"><title>ebtables.service</title>
<ellipse fill="none" stroke="black" cx="1313" cy="-18" rx="66.8882" ry="18"/>
<text text-anchor="middle" x="1313" y="-14.3" font-family="Times,serif" font-size="14.00">ebtables.service</text>
</g>
<!-- network&#45;pre.target&#45;&gt;ebtables.service -->
<g id="edge33" class="edge"><title>network&#45;pre.target&#45;&gt;ebtables.service</title>
<path fill="none" stroke="green" d="M1313,-71.6966C1313,-63.9827 1313,-54.7125 1313,-46.1124"/>
<polygon fill="green" stroke="green" points="1316.5,-46.1043 1313,-36.1043 1309.5,-46.1044 1316.5,-46.1043"/>
</g>
<!-- nss&#45;lookup.target -->
<g id="node12" class="node"><title>nss&#45;lookup.target</title>
<ellipse fill="none" stroke="black" cx="297" cy="-378" rx="71.4873" ry="18"/>
<text text-anchor="middle" x="297" y="-374.3" font-family="Times,serif" font-size="14.00">nss&#45;lookup.target</text>
</g>
<!-- nss&#45;lookup.target&#45;&gt;bind9.service -->
<g id="edge17" class="edge"><title>nss&#45;lookup.target&#45;&gt;bind9.service</title>
<path fill="none" stroke="green" d="M297,-359.697C297,-351.983 297,-342.712 297,-334.112"/>
<polygon fill="green" stroke="green" points="300.5,-334.104 297,-324.104 293.5,-334.104 300.5,-334.104"/>
</g>
<!-- dhclient@eth1.service&#45;&gt;sysinit.target -->
<g id="edge18" class="edge"><title>dhclient@eth1.service&#45;&gt;sysinit.target</title>
<path fill="none" stroke="green" d="M433.168,-145.983C401.525,-134.624 358.119,-119.043 325.593,-107.367"/>
<polygon fill="green" stroke="green" points="326.467,-103.962 315.872,-103.877 324.102,-110.55 326.467,-103.962"/>
</g>
<!-- dhclient@eth1.service&#45;&gt;systemd&#45;journald.socket -->
<g id="edge19" class="edge"><title>dhclient@eth1.service&#45;&gt;systemd&#45;journald.socket</title>
<path fill="none" stroke="green" d="M432.898,-145.851C414.964,-137.357 395.367,-124.989 383,-108 369.959,-90.0845 365.504,-65.0856 364.142,-46.1422"/>
<polygon fill="green" stroke="green" points="367.634,-45.8789 363.662,-36.0566 360.641,-46.2117 367.634,-45.8789"/>
</g>
<!-- dhclient@eth1.service&#45;&gt;basic.target -->
<g id="edge21" class="edge"><title>dhclient@eth1.service&#45;&gt;basic.target</title>
<path fill="none" stroke="green" d="M410.86,-149.314C358.055,-139.361 281.36,-124.141 215,-108 210.976,-107.021 206.815,-105.956 202.648,-104.851"/>
<polygon fill="green" stroke="green" points="203.543,-101.467 192.975,-102.224 201.708,-108.222 203.543,-101.467"/>
</g>
<!-- system&#45;dhclient.slice -->
<g id="node14" class="node"><title>system&#45;dhclient.slice</title>
<ellipse fill="none" stroke="black" cx="829" cy="-90" rx="85.2851" ry="18"/>
<text text-anchor="middle" x="829" y="-86.3" font-family="Times,serif" font-size="14.00">system&#45;dhclient.slice</text>
</g>
<!-- dhclient@eth1.service&#45;&gt;system&#45;dhclient.slice -->
<g id="edge20" class="edge"><title>dhclient@eth1.service&#45;&gt;system&#45;dhclient.slice</title>
<path fill="none" stroke="green" d="M536.662,-148.807C598.713,-136.537 694.261,-117.643 759.092,-104.824"/>
<polygon fill="green" stroke="green" points="760.093,-108.194 769.224,-102.82 758.735,-101.327 760.093,-108.194"/>
</g>
<!-- sys&#45;subsystem&#45;net&#45;devices&#45;eth1.device -->
<g id="node15" class="node"><title>sys&#45;subsystem&#45;net&#45;devices&#45;eth1.device</title>
<ellipse fill="none" stroke="black" cx="540" cy="-90" rx="148.374" ry="18"/>
<text text-anchor="middle" x="540" y="-86.3" font-family="Times,serif" font-size="14.00">sys&#45;subsystem&#45;net&#45;devices&#45;eth1.device</text>
</g>
<!-- dhclient@eth1.service&#45;&gt;sys&#45;subsystem&#45;net&#45;devices&#45;eth1.device -->
<g id="edge22" class="edge"><title>dhclient@eth1.service&#45;&gt;sys&#45;subsystem&#45;net&#45;devices&#45;eth1.device</title>
<path fill="none" stroke="green" d="M490.735,-144.055C498.601,-135.583 508.273,-125.168 516.957,-115.815"/>
<polygon fill="green" stroke="green" points="519.719,-117.985 523.959,-108.275 514.589,-113.222 519.719,-117.985"/>
</g>
<!-- system&#45;dhclient.slice&#45;&gt;system.slice -->
<g id="edge25" class="edge"><title>system&#45;dhclient.slice&#45;&gt;system.slice</title>
<path fill="none" stroke="green" d="M855.208,-72.7646C871.198,-62.8595 891.784,-50.1075 908.893,-39.5087"/>
<polygon fill="green" stroke="green" points="910.823,-42.4305 917.481,-34.189 907.136,-36.4798 910.823,-42.4305"/>
</g>
<!-- rc&#45;local.service -->
<g id="node16" class="node"><title>rc&#45;local.service</title>
<ellipse fill="none" stroke="black" cx="1028" cy="-378" rx="64.9885" ry="18"/>
<text text-anchor="middle" x="1028" y="-374.3" font-family="Times,serif" font-size="14.00">rc&#45;local.service</text>
</g>
<!-- rc&#45;local.service&#45;&gt;network&#45;online.target -->
<g id="edge24" class="edge"><title>rc&#45;local.service&#45;&gt;network&#45;online.target</title>
<path fill="none" stroke="green" d="M997.752,-361.983C977.502,-351.93 950.589,-338.569 928.364,-327.535"/>
<polygon fill="green" stroke="green" points="929.672,-324.277 919.159,-322.966 926.56,-330.547 929.672,-324.277"/>
</g>
<!-- rc&#45;local.service&#45;&gt;network.target -->
<g id="edge23" class="edge"><title>rc&#45;local.service&#45;&gt;network.target</title>
<path fill="none" stroke="green" d="M1081.95,-367.846C1107.44,-360.521 1135.6,-347.406 1151,-324 1159.79,-310.634 1158.73,-302.011 1151,-288 1142.66,-272.87 1127.97,-261.464 1113.2,-253.185"/>
<polygon fill="green" stroke="green" points="1114.52,-249.931 1104.04,-248.429 1111.3,-256.144 1114.52,-249.931"/>
</g>
<!-- supervisor.service -->
<g id="node18" class="node"><title>supervisor.service</title>
<ellipse fill="none" stroke="black" cx="1067" cy="-306" rx="74.9875" ry="18"/>
<text text-anchor="middle" x="1067" y="-302.3" font-family="Times,serif" font-size="14.00">supervisor.service</text>
</g>
<!-- supervisor.service&#45;&gt;network.target -->
<g id="edge32" class="edge"><title>supervisor.service&#45;&gt;network.target</title>
<path fill="none" stroke="green" d="M1067,-287.697C1067,-279.983 1067,-270.712 1067,-262.112"/>
<polygon fill="green" stroke="green" points="1070.5,-262.104 1067,-252.104 1063.5,-262.104 1070.5,-262.104"/>
</g>
</g>
</svg>
