<?xml version="1.0" encoding="UTF-8" standalone="no"?>
<!DOCTYPE svg PUBLIC "-//W3C//DTD SVG 1.1//EN"
 "http://www.w3.org/Graphics/SVG/1.1/DTD/svg11.dtd">
<!-- Generated by graphviz version 2.38.0 (20140413.2041)
 -->
<!-- Title: systemd Pages: 1 -->
<svg width="955pt" height="188pt"
 viewBox="0.00 0.00 955.08 188.00" xmlns="http://www.w3.org/2000/svg" xmlns:xlink="http://www.w3.org/1999/xlink">
<g id="graph0" class="graph" transform="scale(1 1) rotate(0) translate(4 184)">
<title>systemd</title>
<polygon fill="white" stroke="none" points="-4,4 -4,-184 951.082,-184 951.082,4 -4,4"/>
<!-- multi&#45;user.target -->
<g id="node1" class="node"><title>multi&#45;user.target</title>
<ellipse fill="none" stroke="black" cx="271.895" cy="-162" rx="69.5877" ry="18"/>
<text text-anchor="middle" x="271.895" y="-158.3" font-family="Times,serif" font-size="14.00">multi&#45;user.target</text>
</g>
<!-- dhclient@eth1.service -->
<g id="node2" class="node"><title>dhclient@eth1.service</title>
<ellipse fill="none" stroke="black" cx="426.895" cy="-90" rx="89.8845" ry="18"/>
<text text-anchor="middle" x="426.895" y="-86.3" font-family="Times,serif" font-size="14.00">dhclient@eth1.service</text>
</g>
<!-- multi&#45;user.target&#45;&gt;dhclient@eth1.service -->
<g id="edge1" class="edge"><title>multi&#45;user.target&#45;&gt;dhclient@eth1.service</title>
<path fill="none" stroke="green" d="M305.146,-145.983C327.863,-135.724 358.207,-122.02 382.918,-110.86"/>
<polygon fill="green" stroke="green" points="384.413,-114.026 392.086,-106.72 381.532,-107.646 384.413,-114.026"/>
</g>
<!-- sysinit.target -->
<g id="node3" class="node"><title>sysinit.target</title>
<ellipse fill="none" stroke="black" cx="55.895" cy="-18" rx="55.7903" ry="18"/>
<text text-anchor="middle" x="55.895" y="-14.3" font-family="Times,serif" font-size="14.00">sysinit.target</text>
</g>
<!-- dhclient@eth1.service&#45;&gt;sysinit.target -->
<g id="edge2" class="edge"><title>dhclient@eth1.service&#45;&gt;sysinit.target</title>
<path fill="none" stroke="green" d="M356.994,-78.6119C294.761,-68.9552 201.379,-53.4623 120.895,-36 116.293,-35.0014 111.525,-33.895 106.759,-32.7395"/>
<polygon fill="green" stroke="green" points="107.581,-29.3374 97.0318,-30.3178 105.89,-36.1301 107.581,-29.3374"/>
</g>
<!-- systemd&#45;journald.socket -->
<g id="node4" class="node"><title>systemd&#45;journald.socket</title>
<ellipse fill="none" stroke="black" cx="226.895" cy="-18" rx="96.6831" ry="18"/>
<text text-anchor="middle" x="226.895" y="-14.3" font-family="Times,serif" font-size="14.00">systemd&#45;journald.socket</text>
</g>
<!-- dhclient@eth1.service&#45;&gt;systemd&#45;journald.socket -->
<g id="edge3" class="edge"><title>dhclient@eth1.service&#45;&gt;systemd&#45;journald.socket</title>
<path fill="none" stroke="green" d="M383.99,-73.9832C353.513,-63.3162 312.395,-48.9249 279.87,-37.5414"/>
<polygon fill="green" stroke="green" points="280.669,-34.1126 270.074,-34.1125 278.356,-40.7196 280.669,-34.1126"/>
</g>
<!-- system&#45;dhclient.slice -->
<g id="node5" class="node"><title>system&#45;dhclient.slice</title>
<ellipse fill="none" stroke="black" cx="426.895" cy="-18" rx="85.2851" ry="18"/>
<text text-anchor="middle" x="426.895" y="-14.3" font-family="Times,serif" font-size="14.00">system&#45;dhclient.slice</text>
</g>
<!-- dhclient@eth1.service&#45;&gt;system&#45;dhclient.slice -->
<g id="edge4" class="edge"><title>dhclient@eth1.service&#45;&gt;system&#45;dhclient.slice</title>
<path fill="none" stroke="green" d="M426.895,-71.6966C426.895,-63.9827 426.895,-54.7125 426.895,-46.1124"/>
<polygon fill="green" stroke="green" points="430.395,-46.1043 426.895,-36.1043 423.395,-46.1044 430.395,-46.1043"/>
</g>
<!-- basic.target -->
<g id="node6" class="node"><title>basic.target</title>
<ellipse fill="none" stroke="black" cx="580.895" cy="-18" rx="51.1914" ry="18"/>
<text text-anchor="middle" x="580.895" y="-14.3" font-family="Times,serif" font-size="14.00">basic.target</text>
</g>
<!-- dhclient@eth1.service&#45;&gt;basic.target -->
<g id="edge5" class="edge"><title>dhclient@eth1.service&#45;&gt;basic.target</title>
<path fill="none" stroke="green" d="M461.456,-73.2906C485.282,-62.4605 516.992,-48.0467 541.751,-36.7927"/>
<polygon fill="green" stroke="green" points="543.214,-39.9726 550.869,-32.6482 540.317,-33.6 543.214,-39.9726"/>
</g>
<!-- sys&#45;subsystem&#45;net&#45;devices&#45;eth1.device -->
<g id="node7" class="node"><title>sys&#45;subsystem&#45;net&#45;devices&#45;eth1.device</title>
<ellipse fill="none" stroke="black" cx="798.895" cy="-18" rx="148.374" ry="18"/>
<text text-anchor="middle" x="798.895" y="-14.3" font-family="Times,serif" font-size="14.00">sys&#45;subsystem&#45;net&#45;devices&#45;eth1.device</text>
</g>
<!-- dhclient@eth1.service&#45;&gt;sys&#45;subsystem&#45;net&#45;devices&#45;eth1.device -->
<g id="edge6" class="edge"><title>dhclient@eth1.service&#45;&gt;sys&#45;subsystem&#45;net&#45;devices&#45;eth1.device</title>
<path fill="none" stroke="green" d="M490,-77.1255C551.149,-65.6189 644.375,-48.0763 712.416,-35.2729"/>
<polygon fill="green" stroke="green" points="713.085,-38.7085 722.266,-33.4195 711.791,-31.8292 713.085,-38.7085"/>
</g>
<!-- shutdown.target -->
<g id="node8" class="node"><title>shutdown.target</title>
<ellipse fill="none" stroke="black" cx="426.895" cy="-162" rx="67.6881" ry="18"/>
<text text-anchor="middle" x="426.895" y="-158.3" font-family="Times,serif" font-size="14.00">shutdown.target</text>
</g>
<!-- shutdown.target&#45;&gt;dhclient@eth1.service -->
<g id="edge7" class="edge"><title>shutdown.target&#45;&gt;dhclient@eth1.service</title>
<path fill="none" stroke="green" d="M426.895,-143.697C426.895,-135.983 426.895,-126.712 426.895,-118.112"/>
<polygon fill="green" stroke="green" points="430.395,-118.104 426.895,-108.104 423.395,-118.104 430.395,-118.104"/>
</g>
<!-- network.target -->
<g id="node9" class="node"><title>network.target</title>
<ellipse fill="none" stroke="black" cx="573.895" cy="-162" rx="61.99" ry="18"/>
<text text-anchor="middle" x="573.895" y="-158.3" font-family="Times,serif" font-size="14.00">network.target</text>
</g>
<!-- network.target&#45;&gt;dhclient@eth1.service -->
<g id="edge8" class="edge"><title>network.target&#45;&gt;dhclient@eth1.service</title>
<path fill="none" stroke="green" d="M543.079,-146.326C521.599,-136.097 492.677,-122.325 469.063,-111.08"/>
<polygon fill="green" stroke="green" points="470.503,-107.889 459.97,-106.75 467.494,-114.209 470.503,-107.889"/>
</g>
</g>
</svg>
