<?xml version="1.0" encoding="UTF-8" standalone="no"?>
<!DOCTYPE svg PUBLIC "-//W3C//DTD SVG 1.1//EN"
 "http://www.w3.org/Graphics/SVG/1.1/DTD/svg11.dtd">
<!-- Generated by graphviz version 2.38.0 (20140413.2041)
 -->
<!-- Title: systemd Pages: 1 -->
<svg width="2902pt" height="188pt"
 viewBox="0.00 0.00 2902.39 188.00" xmlns="http://www.w3.org/2000/svg" xmlns:xlink="http://www.w3.org/1999/xlink">
<g id="graph0" class="graph" transform="scale(1 1) rotate(0) translate(4 184)">
<title>systemd</title>
<polygon fill="white" stroke="none" points="-4,4 -4,-184 2898.39,-184 2898.39,4 -4,4"/>
<!-- apache2.service -->
<g id="node1" class="node"><title>apache2.service</title>
<ellipse fill="none" stroke="black" cx="66.9441" cy="-162" rx="66.8882" ry="18"/>
<text text-anchor="middle" x="66.9441" y="-158.3" font-family="Times,serif" font-size="14.00">apache2.service</text>
</g>
<!-- network.target -->
<g id="node2" class="node"><title>network.target</title>
<ellipse fill="none" stroke="black" cx="1483.94" cy="-90" rx="61.99" ry="18"/>
<text text-anchor="middle" x="1483.94" y="-86.3" font-family="Times,serif" font-size="14.00">network.target</text>
</g>
<!-- apache2.service&#45;&gt;network.target -->
<g id="edge1" class="edge"><title>apache2.service&#45;&gt;network.target</title>
<path fill="none" stroke="green" d="M114.142,-149.058C123.624,-147.051 133.559,-145.225 142.944,-144 391.775,-111.524 1171.29,-96.1762 1412.25,-92.1255"/>
<polygon fill="green" stroke="green" points="1412.36,-95.6243 1422.3,-91.958 1412.24,-88.6253 1412.36,-95.6243"/>
</g>
<!-- networking.service -->
<g id="node14" class="node"><title>networking.service</title>
<ellipse fill="none" stroke="black" cx="1213.94" cy="-18" rx="77.9862" ry="18"/>
<text text-anchor="middle" x="1213.94" y="-14.3" font-family="Times,serif" font-size="14.00">networking.service</text>
</g>
<!-- network.target&#45;&gt;networking.service -->
<g id="edge13" class="edge"><title>network.target&#45;&gt;networking.service</title>
<path fill="none" stroke="green" d="M1439.36,-77.4409C1394,-65.6821 1323.45,-47.3903 1273.37,-34.4062"/>
<polygon fill="green" stroke="green" points="1274.2,-31.0054 1263.64,-31.8837 1272.44,-37.7814 1274.2,-31.0054"/>
</g>
<!-- network&#45;pre.target -->
<g id="node15" class="node"><title>network&#45;pre.target</title>
<ellipse fill="none" stroke="black" cx="1385.94" cy="-18" rx="76.0865" ry="18"/>
<text text-anchor="middle" x="1385.94" y="-14.3" font-family="Times,serif" font-size="14.00">network&#45;pre.target</text>
</g>
<!-- network.target&#45;&gt;network&#45;pre.target -->
<g id="edge14" class="edge"><title>network.target&#45;&gt;network&#45;pre.target</title>
<path fill="none" stroke="green" d="M1461.71,-73.1159C1448.49,-63.6744 1431.52,-51.5556 1417,-41.1807"/>
<polygon fill="green" stroke="green" points="1418.95,-38.2713 1408.77,-35.307 1414.88,-43.9675 1418.95,-38.2713"/>
</g>
<!-- systemd&#45;networkd.service -->
<g id="node16" class="node"><title>systemd&#45;networkd.service</title>
<ellipse fill="none" stroke="black" cx="1582.94" cy="-18" rx="103.182" ry="18"/>
<text text-anchor="middle" x="1582.94" y="-14.3" font-family="Times,serif" font-size="14.00">systemd&#45;networkd.service</text>
</g>
<!-- network.target&#45;&gt;systemd&#45;networkd.service -->
<g id="edge15" class="edge"><title>network.target&#45;&gt;systemd&#45;networkd.service</title>
<path fill="none" stroke="green" d="M1506.41,-73.1159C1519.67,-63.7418 1536.66,-51.7286 1551.26,-41.4033"/>
<polygon fill="green" stroke="green" points="1553.39,-44.1828 1559.54,-35.5516 1549.35,-38.4672 1553.39,-44.1828"/>
</g>
<!-- dhclient@eth1.service -->
<g id="node17" class="node"><title>dhclient@eth1.service</title>
<ellipse fill="none" stroke="black" cx="1793.94" cy="-18" rx="89.8845" ry="18"/>
<text text-anchor="middle" x="1793.94" y="-14.3" font-family="Times,serif" font-size="14.00">dhclient@eth1.service</text>
</g>
<!-- network.target&#45;&gt;dhclient@eth1.service -->
<g id="edge16" class="edge"><title>network.target&#45;&gt;dhclient@eth1.service</title>
<path fill="none" stroke="green" d="M1531.36,-78.2923C1583.55,-66.5077 1667.85,-47.473 1726.81,-34.1586"/>
<polygon fill="green" stroke="green" points="1727.8,-37.5245 1736.78,-31.9078 1726.26,-30.6965 1727.8,-37.5245"/>
</g>
<!-- memcached.service -->
<g id="node3" class="node"><title>memcached.service</title>
<ellipse fill="none" stroke="black" cx="232.944" cy="-162" rx="81.4863" ry="18"/>
<text text-anchor="middle" x="232.944" y="-158.3" font-family="Times,serif" font-size="14.00">memcached.service</text>
</g>
<!-- memcached.service&#45;&gt;network.target -->
<g id="edge2" class="edge"><title>memcached.service&#45;&gt;network.target</title>
<path fill="none" stroke="green" d="M289.891,-148.989C300.82,-147.04 312.204,-145.253 322.944,-144 733.051,-96.149 1229.34,-90.9324 1412,-90.7655"/>
<polygon fill="green" stroke="green" points="1412.02,-94.2656 1422.02,-90.7612 1412.02,-87.2656 1412.02,-94.2656"/>
</g>
<!-- forked&#45;daapd.service -->
<g id="node4" class="node"><title>forked&#45;daapd.service</title>
<ellipse fill="none" stroke="black" cx="416.944" cy="-162" rx="85.2851" ry="18"/>
<text text-anchor="middle" x="416.944" y="-158.3" font-family="Times,serif" font-size="14.00">forked&#45;daapd.service</text>
</g>
<!-- forked&#45;daapd.service&#45;&gt;network.target -->
<g id="edge3" class="edge"><title>forked&#45;daapd.service&#45;&gt;network.target</title>
<path fill="none" stroke="green" d="M476.449,-149.085C487.861,-147.127 499.743,-145.313 510.944,-144 846.349,-104.691 1250.29,-94.4597 1411.95,-91.8599"/>
<polygon fill="green" stroke="green" points="1412.3,-95.3549 1422.24,-91.6994 1412.19,-88.3558 1412.3,-95.3549"/>
</g>
<!-- fail2ban.service -->
<g id="node5" class="node"><title>fail2ban.service</title>
<ellipse fill="none" stroke="black" cx="586.944" cy="-162" rx="66.8882" ry="18"/>
<text text-anchor="middle" x="586.944" y="-158.3" font-family="Times,serif" font-size="14.00">fail2ban.service</text>
</g>
<!-- fail2ban.service&#45;&gt;network.target -->
<g id="edge4" class="edge"><title>fail2ban.service&#45;&gt;network.target</title>
<path fill="none" stroke="green" d="M634.574,-149.157C643.931,-147.167 653.709,-145.323 662.944,-144 937.783,-104.634 1268.6,-94.493 1411.92,-91.8916"/>
<polygon fill="green" stroke="green" points="1412.39,-95.3841 1422.33,-91.7101 1412.27,-88.3851 1412.39,-95.3841"/>
</g>
<!-- network&#45;online.target -->
<g id="node6" class="node"><title>network&#45;online.target</title>
<ellipse fill="none" stroke="black" cx="758.944" cy="-162" rx="87.1846" ry="18"/>
<text text-anchor="middle" x="758.944" y="-158.3" font-family="Times,serif" font-size="14.00">network&#45;online.target</text>
</g>
<!-- network&#45;online.target&#45;&gt;network.target -->
<g id="edge5" class="edge"><title>network&#45;online.target&#45;&gt;network.target</title>
<path fill="none" stroke="green" d="M820.528,-149.238C831.942,-147.302 843.783,-145.455 854.944,-144 1056.95,-117.66 1297.24,-101.627 1413.71,-94.8214"/>
<polygon fill="green" stroke="green" points="1414.13,-98.3029 1423.91,-94.2303 1413.72,-91.3146 1414.13,-98.3029"/>
</g>
<!-- systemd&#45;user&#45;sessions.service -->
<g id="node7" class="node"><title>systemd&#45;user&#45;sessions.service</title>
<ellipse fill="none" stroke="black" cx="979.944" cy="-162" rx="116.18" ry="18"/>
<text text-anchor="middle" x="979.944" y="-158.3" font-family="Times,serif" font-size="14.00">systemd&#45;user&#45;sessions.service</text>
</g>
<!-- systemd&#45;user&#45;sessions.service&#45;&gt;network.target -->
<g id="edge6" class="edge"><title>systemd&#45;user&#45;sessions.service&#45;&gt;network.target</title>
<path fill="none" stroke="green" d="M1063.45,-149.402C1163.39,-135.522 1328.57,-112.58 1419.3,-99.9781"/>
<polygon fill="green" stroke="green" points="1420.03,-103.411 1429.45,-98.5683 1419.07,-96.4774 1420.03,-103.411"/>
</g>
<!-- libvirt&#45;guests.service -->
<g id="node8" class="node"><title>libvirt&#45;guests.service</title>
<ellipse fill="none" stroke="black" cx="1198.94" cy="-162" rx="84.485" ry="18"/>
<text text-anchor="middle" x="1198.94" y="-158.3" font-family="Times,serif" font-size="14.00">libvirt&#45;guests.service</text>
</g>
<!-- libvirt&#45;guests.service&#45;&gt;network.target -->
<g id="edge7" class="edge"><title>libvirt&#45;guests.service&#45;&gt;network.target</title>
<path fill="none" stroke="green" d="M1252.22,-147.916C1302.51,-135.562 1377.63,-117.113 1428.59,-104.595"/>
<polygon fill="green" stroke="green" points="1429.57,-107.958 1438.45,-102.174 1427.9,-101.16 1429.57,-107.958"/>
</g>
<!-- bind9.service -->
<g id="node9" class="node"><title>bind9.service</title>
<ellipse fill="none" stroke="black" cx="1358.94" cy="-162" rx="57.6901" ry="18"/>
<text text-anchor="middle" x="1358.94" y="-158.3" font-family="Times,serif" font-size="14.00">bind9.service</text>
</g>
<!-- bind9.service&#45;&gt;network.target -->
<g id="edge8" class="edge"><title>bind9.service&#45;&gt;network.target</title>
<path fill="none" stroke="green" d="M1385.76,-145.983C1403.92,-135.811 1428.14,-122.252 1447.97,-111.144"/>
<polygon fill="green" stroke="green" points="1449.73,-114.173 1456.74,-106.233 1446.31,-108.066 1449.73,-114.173"/>
</g>
<!-- ssh.service -->
<g id="node10" class="node"><title>ssh.service</title>
<ellipse fill="none" stroke="black" cx="1483.94" cy="-162" rx="49.2915" ry="18"/>
<text text-anchor="middle" x="1483.94" y="-158.3" font-family="Times,serif" font-size="14.00">ssh.service</text>
</g>
<!-- ssh.service&#45;&gt;network.target -->
<g id="edge9" class="edge"><title>ssh.service&#45;&gt;network.target</title>
<path fill="none" stroke="green" d="M1483.94,-143.697C1483.94,-135.983 1483.94,-126.712 1483.94,-118.112"/>
<polygon fill="green" stroke="green" points="1487.44,-118.104 1483.94,-108.104 1480.44,-118.104 1487.44,-118.104"/>
</g>
<!-- rabbitmq&#45;server.service -->
<g id="node11" class="node"><title>rabbitmq&#45;server.service</title>
<ellipse fill="none" stroke="black" cx="1645.94" cy="-162" rx="94.7833" ry="18"/>
<text text-anchor="middle" x="1645.94" y="-158.3" font-family="Times,serif" font-size="14.00">rabbitmq&#45;server.service</text>
</g>
<!-- rabbitmq&#45;server.service&#45;&gt;network.target -->
<g id="edge10" class="edge"><title>rabbitmq&#45;server.service&#45;&gt;network.target</title>
<path fill="none" stroke="green" d="M1609.59,-145.291C1584.83,-134.592 1551.98,-120.397 1526.08,-109.205"/>
<polygon fill="green" stroke="green" points="1527.44,-105.983 1516.88,-105.229 1524.67,-112.409 1527.44,-105.983"/>
</g>
<!-- rc&#45;local.service -->
<g id="node12" class="node"><title>rc&#45;local.service</title>
<ellipse fill="none" stroke="black" cx="1823.94" cy="-162" rx="64.9885" ry="18"/>
<text text-anchor="middle" x="1823.94" y="-158.3" font-family="Times,serif" font-size="14.00">rc&#45;local.service</text>
</g>
<!-- rc&#45;local.service&#45;&gt;network.target -->
<g id="edge11" class="edge"><title>rc&#45;local.service&#45;&gt;network.target</title>
<path fill="none" stroke="green" d="M1775.82,-149.732C1767.22,-147.777 1758.32,-145.797 1749.94,-144 1679.44,-128.881 1598.11,-112.886 1544.13,-102.472"/>
<polygon fill="green" stroke="green" points="1544.52,-98.9842 1534.04,-100.53 1543.2,-105.858 1544.52,-98.9842"/>
</g>
<!-- iscsid.service -->
<g id="node13" class="node"><title>iscsid.service</title>
<ellipse fill="none" stroke="black" cx="1964.94" cy="-162" rx="57.6901" ry="18"/>
<text text-anchor="middle" x="1964.94" y="-158.3" font-family="Times,serif" font-size="14.00">iscsid.service</text>
</g>
<!-- iscsid.service&#45;&gt;network.target -->
<g id="edge12" class="edge"><title>iscsid.service&#45;&gt;network.target</title>
<path fill="none" stroke="green" d="M1922.94,-149.515C1914.7,-147.495 1906.08,-145.547 1897.94,-144 1777.16,-121.033 1634.62,-105.228 1552.22,-97.1808"/>
<polygon fill="green" stroke="green" points="1552.52,-93.6936 1542.23,-96.2144 1551.85,-100.661 1552.52,-93.6936"/>
</g>
<!-- supervisor.service -->
<g id="node18" class="node"><title>supervisor.service</title>
<ellipse fill="none" stroke="black" cx="2115.94" cy="-162" rx="74.9875" ry="18"/>
<text text-anchor="middle" x="2115.94" y="-158.3" font-family="Times,serif" font-size="14.00">supervisor.service</text>
</g>
<!-- supervisor.service&#45;&gt;network.target -->
<g id="edge17" class="edge"><title>supervisor.service&#45;&gt;network.target</title>
<path fill="none" stroke="green" d="M2062.32,-149.288C2052.26,-147.336 2041.8,-145.471 2031.94,-144 1861.09,-118.518 1658.34,-102.6 1553.89,-95.4423"/>
<polygon fill="green" stroke="green" points="1554.01,-91.9419 1543.79,-94.7564 1553.53,-98.9258 1554.01,-91.9419"/>
</g>
<!-- mariadb.service -->
<g id="node19" class="node"><title>mariadb.service</title>
<ellipse fill="none" stroke="black" cx="2275.94" cy="-162" rx="67.6881" ry="18"/>
<text text-anchor="middle" x="2275.94" y="-158.3" font-family="Times,serif" font-size="14.00">mariadb.service</text>
</g>
<!-- mariadb.service&#45;&gt;network.target -->
<g id="edge18" class="edge"><title>mariadb.service&#45;&gt;network.target</title>
<path fill="none" stroke="green" d="M2228.3,-149.226C2218.95,-147.231 2209.17,-145.366 2199.94,-144 1965.55,-109.299 1684.44,-96.909 1555.25,-92.8296"/>
<polygon fill="green" stroke="green" points="1555.2,-89.3263 1545.1,-92.5162 1554.98,-96.323 1555.2,-89.3263"/>
</g>
<!-- unattended&#45;upgrades.service -->
<g id="node20" class="node"><title>unattended&#45;upgrades.service</title>
<ellipse fill="none" stroke="black" cx="2472.94" cy="-162" rx="111.28" ry="18"/>
<text text-anchor="middle" x="2472.94" y="-158.3" font-family="Times,serif" font-size="14.00">unattended&#45;upgrades.service</text>
</g>
<!-- unattended&#45;upgrades.service&#45;&gt;network.target -->
<g id="edge19" class="edge"><title>unattended&#45;upgrades.service&#45;&gt;network.target</title>
<path fill="none" stroke="green" d="M2395.27,-149.074C2381.21,-147.177 2366.66,-145.387 2352.94,-144 2057.58,-114.119 1703.91,-98.8913 1555.27,-93.4211"/>
<polygon fill="green" stroke="green" points="1555.04,-89.9107 1544.92,-93.044 1554.79,-96.906 1555.04,-89.9107"/>
</g>
<!-- libvirtd.service -->
<g id="node21" class="node"><title>libvirtd.service</title>
<ellipse fill="none" stroke="black" cx="2665.94" cy="-162" rx="63.8893" ry="18"/>
<text text-anchor="middle" x="2665.94" y="-158.3" font-family="Times,serif" font-size="14.00">libvirtd.service</text>
</g>
<!-- libvirtd.service&#45;&gt;network.target -->
<g id="edge20" class="edge"><title>libvirtd.service&#45;&gt;network.target</title>
<path fill="none" stroke="green" d="M2621.01,-149.193C2611.79,-147.148 2602.09,-145.273 2592.94,-144 2391.37,-115.948 1767.77,-98.1128 1555.52,-92.7261"/>
<polygon fill="green" stroke="green" points="1555.52,-89.2249 1545.43,-92.4715 1555.34,-96.2227 1555.52,-89.2249"/>
</g>
<!-- opendkim.service -->
<g id="node22" class="node"><title>opendkim.service</title>
<ellipse fill="none" stroke="black" cx="2820.94" cy="-162" rx="73.387" ry="18"/>
<text text-anchor="middle" x="2820.94" y="-158.3" font-family="Times,serif" font-size="14.00">opendkim.service</text>
</g>
<!-- opendkim.service&#45;&gt;network.target -->
<g id="edge21" class="edge"><title>opendkim.service&#45;&gt;network.target</title>
<path fill="none" stroke="green" d="M2769.54,-149.014C2759.45,-147.038 2748.9,-145.234 2738.94,-144 2507.42,-115.304 1786.24,-97.5528 1555.63,-92.4967"/>
<polygon fill="green" stroke="green" points="1555.42,-88.9915 1545.34,-92.2726 1555.27,-95.9898 1555.42,-88.9915"/>
</g>
</g>
</svg>
