<?xml version="1.0" encoding="UTF-8" standalone="no"?>
<!DOCTYPE svg PUBLIC "-//W3C//DTD SVG 1.1//EN"
 "http://www.w3.org/Graphics/SVG/1.1/DTD/svg11.dtd">
<!-- Generated by graphviz version 2.38.0 (20140413.2041)
 -->
<!-- Title: systemd Pages: 1 -->
<svg width="530pt" height="188pt"
 viewBox="0.00 0.00 530.09 188.00" xmlns="http://www.w3.org/2000/svg" xmlns:xlink="http://www.w3.org/1999/xlink">
<g id="graph0" class="graph" transform="scale(1 1) rotate(0) translate(4 184)">
<title>systemd</title>
<polygon fill="white" stroke="none" points="-4,4 -4,-184 526.085,-184 526.085,4 -4,4"/>
<!-- systemd&#45;networkd.service -->
<g id="node1" class="node"><title>systemd&#45;networkd.service</title>
<ellipse fill="none" stroke="black" cx="103.341" cy="-162" rx="103.182" ry="18"/>
<text text-anchor="middle" x="103.341" y="-158.3" font-family="Times,serif" font-size="14.00">systemd&#45;networkd.service</text>
</g>
<!-- network&#45;pre.target -->
<g id="node2" class="node"><title>network&#45;pre.target</title>
<ellipse fill="none" stroke="black" cx="302.341" cy="-90" rx="76.0865" ry="18"/>
<text text-anchor="middle" x="302.341" y="-86.3" font-family="Times,serif" font-size="14.00">network&#45;pre.target</text>
</g>
<!-- systemd&#45;networkd.service&#45;&gt;network&#45;pre.target -->
<g id="edge1" class="edge"><title>systemd&#45;networkd.service&#45;&gt;network&#45;pre.target</title>
<path fill="none" stroke="green" d="M147.012,-145.638C178.014,-134.733 219.708,-120.067 252.092,-108.675"/>
<polygon fill="green" stroke="green" points="253.55,-111.873 261.822,-105.253 251.227,-105.27 253.55,-111.873"/>
</g>
<!-- ebtables.service -->
<g id="node5" class="node"><title>ebtables.service</title>
<ellipse fill="none" stroke="black" cx="302.341" cy="-18" rx="66.8882" ry="18"/>
<text text-anchor="middle" x="302.341" y="-14.3" font-family="Times,serif" font-size="14.00">ebtables.service</text>
</g>
<!-- network&#45;pre.target&#45;&gt;ebtables.service -->
<g id="edge4" class="edge"><title>network&#45;pre.target&#45;&gt;ebtables.service</title>
<path fill="none" stroke="green" d="M302.341,-71.6966C302.341,-63.9827 302.341,-54.7125 302.341,-46.1124"/>
<polygon fill="green" stroke="green" points="305.841,-46.1043 302.341,-36.1043 298.841,-46.1044 305.841,-46.1043"/>
</g>
<!-- networking.service -->
<g id="node3" class="node"><title>networking.service</title>
<ellipse fill="none" stroke="black" cx="302.341" cy="-162" rx="77.9862" ry="18"/>
<text text-anchor="middle" x="302.341" y="-158.3" font-family="Times,serif" font-size="14.00">networking.service</text>
</g>
<!-- networking.service&#45;&gt;network&#45;pre.target -->
<g id="edge2" class="edge"><title>networking.service&#45;&gt;network&#45;pre.target</title>
<path fill="none" stroke="green" d="M302.341,-143.697C302.341,-135.983 302.341,-126.712 302.341,-118.112"/>
<polygon fill="green" stroke="green" points="305.841,-118.104 302.341,-108.104 298.841,-118.104 305.841,-118.104"/>
</g>
<!-- network.target -->
<g id="node4" class="node"><title>network.target</title>
<ellipse fill="none" stroke="black" cx="460.341" cy="-162" rx="61.99" ry="18"/>
<text text-anchor="middle" x="460.341" y="-158.3" font-family="Times,serif" font-size="14.00">network.target</text>
</g>
<!-- network.target&#45;&gt;network&#45;pre.target -->
<g id="edge3" class="edge"><title>network.target&#45;&gt;network&#45;pre.target</title>
<path fill="none" stroke="green" d="M427.986,-146.666C404.265,-136.156 371.804,-121.775 345.818,-110.262"/>
<polygon fill="green" stroke="green" points="347.127,-107.014 336.566,-106.163 344.291,-113.414 347.127,-107.014"/>
</g>
</g>
</svg>
