<?xml version="1.0" encoding="UTF-8" standalone="no"?>
<!DOCTYPE svg PUBLIC "-//W3C//DTD SVG 1.1//EN"
 "http://www.w3.org/Graphics/SVG/1.1/DTD/svg11.dtd">
<!-- Generated by graphviz version 2.38.0 (20140413.2041)
 -->
<!-- Title: systemd Pages: 1 -->
<svg width="3469pt" height="188pt"
 viewBox="0.00 0.00 3469.49 188.00" xmlns="http://www.w3.org/2000/svg" xmlns:xlink="http://www.w3.org/1999/xlink">
<g id="graph0" class="graph" transform="scale(1 1) rotate(0) translate(4 184)">
<title>systemd</title>
<polygon fill="white" stroke="none" points="-4,4 -4,-184 3465.49,-184 3465.49,4 -4,4"/>
<!-- webmin.service -->
<g id="node1" class="node"><title>webmin.service</title>
<ellipse fill="none" stroke="black" cx="66.9441" cy="-162" rx="66.8882" ry="18"/>
<text text-anchor="middle" x="66.9441" y="-158.3" font-family="Times,serif" font-size="14.00">webmin.service</text>
</g>
<!-- network&#45;online.target -->
<g id="node2" class="node"><title>network&#45;online.target</title>
<ellipse fill="none" stroke="black" cx="1700.94" cy="-90" rx="87.1846" ry="18"/>
<text text-anchor="middle" x="1700.94" y="-86.3" font-family="Times,serif" font-size="14.00">network&#45;online.target</text>
</g>
<!-- webmin.service&#45;&gt;network&#45;online.target -->
<g id="edge1" class="edge"><title>webmin.service&#45;&gt;network&#45;online.target</title>
<path fill="none" stroke="green" d="M113.509,-149.014C122.868,-147.011 132.675,-145.197 141.944,-144 426.626,-107.233 1308.84,-95.015 1603.79,-91.9008"/>
<polygon fill="green" stroke="green" points="1604.07,-95.3981 1614.03,-91.7938 1603.99,-88.3985 1604.07,-95.3981"/>
</g>
<!-- network.target -->
<g id="node10" class="node"><title>network.target</title>
<ellipse fill="none" stroke="black" cx="1621.94" cy="-18" rx="61.99" ry="18"/>
<text text-anchor="middle" x="1621.94" y="-14.3" font-family="Times,serif" font-size="14.00">network.target</text>
</g>
<!-- network&#45;online.target&#45;&gt;network.target -->
<g id="edge9" class="edge"><title>network&#45;online.target&#45;&gt;network.target</title>
<path fill="none" stroke="green" d="M1682.22,-72.411C1672.02,-63.3668 1659.22,-52.0296 1648.05,-42.1298"/>
<polygon fill="green" stroke="green" points="1650.06,-39.2408 1640.26,-35.2285 1645.42,-44.48 1650.06,-39.2408"/>
</g>
<!-- networking.service -->
<g id="node11" class="node"><title>networking.service</title>
<ellipse fill="none" stroke="black" cx="1779.94" cy="-18" rx="77.9862" ry="18"/>
<text text-anchor="middle" x="1779.94" y="-14.3" font-family="Times,serif" font-size="14.00">networking.service</text>
</g>
<!-- network&#45;online.target&#45;&gt;networking.service -->
<g id="edge10" class="edge"><title>network&#45;online.target&#45;&gt;networking.service</title>
<path fill="none" stroke="green" d="M1719.67,-72.411C1729.73,-63.4969 1742.3,-52.3554 1753.36,-42.558"/>
<polygon fill="green" stroke="green" points="1755.92,-44.964 1761.08,-35.7125 1751.28,-39.7248 1755.92,-44.964"/>
</g>
<!-- minidlna.service -->
<g id="node3" class="node"><title>minidlna.service</title>
<ellipse fill="none" stroke="black" cx="220.944" cy="-162" rx="69.5877" ry="18"/>
<text text-anchor="middle" x="220.944" y="-158.3" font-family="Times,serif" font-size="14.00">minidlna.service</text>
</g>
<!-- minidlna.service&#45;&gt;network&#45;online.target -->
<g id="edge2" class="edge"><title>minidlna.service&#45;&gt;network&#45;online.target</title>
<path fill="none" stroke="green" d="M270.023,-149.055C279.878,-147.049 290.2,-145.223 299.944,-144 552.841,-112.252 1329.61,-96.9779 1603.84,-92.4716"/>
<polygon fill="green" stroke="green" points="1604.22,-95.9659 1614.17,-92.3031 1604.11,-88.9668 1604.22,-95.9659"/>
</g>
<!-- nmbd.service -->
<g id="node4" class="node"><title>nmbd.service</title>
<ellipse fill="none" stroke="black" cx="366.944" cy="-162" rx="58.4896" ry="18"/>
<text text-anchor="middle" x="366.944" y="-158.3" font-family="Times,serif" font-size="14.00">nmbd.service</text>
</g>
<!-- nmbd.service&#45;&gt;network&#45;online.target -->
<g id="edge3" class="edge"><title>nmbd.service&#45;&gt;network&#45;online.target</title>
<path fill="none" stroke="green" d="M408.133,-149.128C416.605,-147.089 425.513,-145.232 433.944,-144 659.395,-111.045 1348.55,-96.7328 1604.18,-92.4605"/>
<polygon fill="green" stroke="green" points="1604.25,-95.9599 1614.19,-92.2946 1604.14,-88.9608 1604.25,-95.9599"/>
</g>
<!-- slapd.service -->
<g id="node5" class="node"><title>slapd.service</title>
<ellipse fill="none" stroke="black" cx="499.944" cy="-162" rx="56.59" ry="18"/>
<text text-anchor="middle" x="499.944" y="-158.3" font-family="Times,serif" font-size="14.00">slapd.service</text>
</g>
<!-- slapd.service&#45;&gt;network&#45;online.target -->
<g id="edge4" class="edge"><title>slapd.service&#45;&gt;network&#45;online.target</title>
<path fill="none" stroke="green" d="M540.162,-149.243C548.613,-147.167 557.52,-145.268 565.944,-144 765.001,-114.042 1368.05,-98.1653 1604.42,-92.9584"/>
<polygon fill="green" stroke="green" points="1604.8,-96.4512 1614.72,-92.7333 1604.65,-89.4528 1604.8,-96.4512"/>
</g>
<!-- postfix@&#45;.service -->
<g id="node6" class="node"><title>postfix@&#45;.service</title>
<ellipse fill="none" stroke="black" cx="647.944" cy="-162" rx="73.387" ry="18"/>
<text text-anchor="middle" x="647.944" y="-158.3" font-family="Times,serif" font-size="14.00">postfix@&#45;.service</text>
</g>
<!-- postfix@&#45;.service&#45;&gt;network&#45;online.target -->
<g id="edge5" class="edge"><title>postfix@&#45;.service&#45;&gt;network&#45;online.target</title>
<path fill="none" stroke="green" d="M699.993,-149.118C710.209,-147.132 720.878,-145.299 730.944,-144 1048.49,-103.032 1428.5,-93.6793 1603.71,-91.5812"/>
<polygon fill="green" stroke="green" points="1603.97,-95.0785 1613.93,-91.4643 1603.89,-88.079 1603.97,-95.0785"/>
</g>
<!-- shorewall.service -->
<g id="node7" class="node"><title>shorewall.service</title>
<ellipse fill="none" stroke="black" cx="811.944" cy="-162" rx="72.2875" ry="18"/>
<text text-anchor="middle" x="811.944" y="-158.3" font-family="Times,serif" font-size="14.00">shorewall.service</text>
</g>
<!-- shorewall.service&#45;&gt;network&#45;online.target -->
<g id="edge6" class="edge"><title>shorewall.service&#45;&gt;network&#45;online.target</title>
<path fill="none" stroke="green" d="M862.739,-149.194C872.709,-147.202 883.121,-145.346 892.944,-144 1148.39,-108.994 1452.56,-96.9434 1604.51,-92.9237"/>
<polygon fill="green" stroke="green" points="1604.83,-96.4166 1614.74,-92.6592 1604.65,-89.4189 1604.83,-96.4166"/>
</g>
<!-- ddclient.service -->
<g id="node8" class="node"><title>ddclient.service</title>
<ellipse fill="none" stroke="black" cx="967.944" cy="-162" rx="66.0889" ry="18"/>
<text text-anchor="middle" x="967.944" y="-158.3" font-family="Times,serif" font-size="14.00">ddclient.service</text>
</g>
<!-- ddclient.service&#45;&gt;network&#45;online.target -->
<g id="edge7" class="edge"><title>ddclient.service&#45;&gt;network&#45;online.target</title>
<path fill="none" stroke="green" d="M1015.18,-149.362C1024.66,-147.33 1034.59,-145.417 1043.94,-144 1242.51,-113.933 1477.59,-100.182 1605.8,-94.5073"/>
<polygon fill="green" stroke="green" points="1606.14,-97.9959 1615.98,-94.0638 1605.84,-91.0025 1606.14,-97.9959"/>
</g>
<!-- ntp.service -->
<g id="node9" class="node"><title>ntp.service</title>
<ellipse fill="none" stroke="black" cx="1101.94" cy="-162" rx="49.2915" ry="18"/>
<text text-anchor="middle" x="1101.94" y="-158.3" font-family="Times,serif" font-size="14.00">ntp.service</text>
</g>
<!-- ntp.service&#45;&gt;network&#45;online.target -->
<g id="edge8" class="edge"><title>ntp.service&#45;&gt;network&#45;online.target</title>
<path fill="none" stroke="green" d="M1137.58,-149.418C1144.91,-147.356 1152.63,-145.417 1159.94,-144 1314.55,-114.045 1497.46,-100.622 1606.09,-94.9067"/>
<polygon fill="green" stroke="green" points="1606.56,-98.3872 1616.37,-94.3774 1606.2,-91.3965 1606.56,-98.3872"/>
</g>
<!-- smcroute.service -->
<g id="node12" class="node"><title>smcroute.service</title>
<ellipse fill="none" stroke="black" cx="1239.94" cy="-162" rx="70.6878" ry="18"/>
<text text-anchor="middle" x="1239.94" y="-158.3" font-family="Times,serif" font-size="14.00">smcroute.service</text>
</g>
<!-- smcroute.service&#45;&gt;network&#45;online.target -->
<g id="edge11" class="edge"><title>smcroute.service&#45;&gt;network&#45;online.target</title>
<path fill="none" stroke="green" d="M1291.48,-149.485C1300.93,-147.535 1310.71,-145.621 1319.94,-144 1421.77,-126.123 1539.76,-110.486 1617.13,-100.918"/>
<polygon fill="green" stroke="green" points="1617.81,-104.361 1627.31,-99.666 1616.95,-97.4138 1617.81,-104.361"/>
</g>
<!-- isc&#45;dhcp&#45;server.service -->
<g id="node13" class="node"><title>isc&#45;dhcp&#45;server.service</title>
<ellipse fill="none" stroke="black" cx="1420.94" cy="-162" rx="92.0841" ry="18"/>
<text text-anchor="middle" x="1420.94" y="-158.3" font-family="Times,serif" font-size="14.00">isc&#45;dhcp&#45;server.service</text>
</g>
<!-- isc&#45;dhcp&#45;server.service&#45;&gt;network&#45;online.target -->
<g id="edge12" class="edge"><title>isc&#45;dhcp&#45;server.service&#45;&gt;network&#45;online.target</title>
<path fill="none" stroke="green" d="M1475.26,-147.42C1521.83,-135.778 1588.95,-118.998 1637.89,-106.765"/>
<polygon fill="green" stroke="green" points="1638.87,-110.125 1647.73,-104.304 1637.18,-103.334 1638.87,-110.125"/>
</g>
<!-- samba&#45;ad&#45;dc.service -->
<g id="node14" class="node"><title>samba&#45;ad&#45;dc.service</title>
<ellipse fill="none" stroke="black" cx="1613.94" cy="-162" rx="83.3857" ry="18"/>
<text text-anchor="middle" x="1613.94" y="-158.3" font-family="Times,serif" font-size="14.00">samba&#45;ad&#45;dc.service</text>
</g>
<!-- samba&#45;ad&#45;dc.service&#45;&gt;network&#45;online.target -->
<g id="edge13" class="edge"><title>samba&#45;ad&#45;dc.service&#45;&gt;network&#45;online.target</title>
<path fill="none" stroke="green" d="M1634.56,-144.411C1645.86,-135.324 1660.03,-123.922 1672.37,-113.989"/>
<polygon fill="green" stroke="green" points="1674.58,-116.708 1680.17,-107.713 1670.19,-111.254 1674.58,-116.708"/>
</g>
<!-- open&#45;iscsi.service -->
<g id="node15" class="node"><title>open&#45;iscsi.service</title>
<ellipse fill="none" stroke="black" cx="1788.94" cy="-162" rx="73.387" ry="18"/>
<text text-anchor="middle" x="1788.94" y="-158.3" font-family="Times,serif" font-size="14.00">open&#45;iscsi.service</text>
</g>
<!-- open&#45;iscsi.service&#45;&gt;network&#45;online.target -->
<g id="edge14" class="edge"><title>open&#45;iscsi.service&#45;&gt;network&#45;online.target</title>
<path fill="none" stroke="green" d="M1768.09,-144.411C1756.67,-135.324 1742.33,-123.922 1729.84,-113.989"/>
<polygon fill="green" stroke="green" points="1731.96,-111.199 1721.95,-107.713 1727.6,-116.677 1731.96,-111.199"/>
</g>
<!-- exim4.service -->
<g id="node16" class="node"><title>exim4.service</title>
<ellipse fill="none" stroke="black" cx="1940.94" cy="-162" rx="60.3893" ry="18"/>
<text text-anchor="middle" x="1940.94" y="-158.3" font-family="Times,serif" font-size="14.00">exim4.service</text>
</g>
<!-- exim4.service&#45;&gt;network&#45;online.target -->
<g id="edge15" class="edge"><title>exim4.service&#45;&gt;network&#45;online.target</title>
<path fill="none" stroke="green" d="M1899.41,-148.887C1860.7,-137.597 1802.6,-120.648 1759.25,-108.004"/>
<polygon fill="green" stroke="green" points="1759.98,-104.573 1749.4,-105.133 1758.02,-111.293 1759.98,-104.573"/>
</g>
<!-- rc&#45;local.service -->
<g id="node17" class="node"><title>rc&#45;local.service</title>
<ellipse fill="none" stroke="black" cx="2083.94" cy="-162" rx="64.9885" ry="18"/>
<text text-anchor="middle" x="2083.94" y="-158.3" font-family="Times,serif" font-size="14.00">rc&#45;local.service</text>
</g>
<!-- rc&#45;local.service&#45;&gt;network&#45;online.target -->
<g id="edge16" class="edge"><title>rc&#45;local.service&#45;&gt;network&#45;online.target</title>
<path fill="none" stroke="green" d="M2036.26,-149.633C2027.52,-147.668 2018.47,-145.71 2009.94,-144 1931.46,-128.267 1841.18,-113.12 1778.55,-103.077"/>
<polygon fill="green" stroke="green" points="1778.78,-99.5697 1768.35,-101.448 1777.68,-106.482 1778.78,-99.5697"/>
</g>
<!-- iscsid.service -->
<g id="node18" class="node"><title>iscsid.service</title>
<ellipse fill="none" stroke="black" cx="2224.94" cy="-162" rx="57.6901" ry="18"/>
<text text-anchor="middle" x="2224.94" y="-158.3" font-family="Times,serif" font-size="14.00">iscsid.service</text>
</g>
<!-- iscsid.service&#45;&gt;network&#45;online.target -->
<g id="edge17" class="edge"><title>iscsid.service&#45;&gt;network&#45;online.target</title>
<path fill="none" stroke="green" d="M2182.96,-149.438C2174.71,-147.424 2166.09,-145.498 2157.94,-144 2031.69,-120.768 1883.83,-105.817 1791.26,-97.9053"/>
<polygon fill="green" stroke="green" points="1791.35,-94.4002 1781.09,-97.0452 1790.76,-101.375 1791.35,-94.4002"/>
</g>
<!-- nginx.service -->
<g id="node19" class="node"><title>nginx.service</title>
<ellipse fill="none" stroke="black" cx="2358.94" cy="-162" rx="57.6901" ry="18"/>
<text text-anchor="middle" x="2358.94" y="-158.3" font-family="Times,serif" font-size="14.00">nginx.service</text>
</g>
<!-- nginx.service&#45;&gt;network&#45;online.target -->
<g id="edge18" class="edge"><title>nginx.service&#45;&gt;network&#45;online.target</title>
<path fill="none" stroke="green" d="M2317.35,-149.355C2308.99,-147.324 2300.22,-145.413 2291.94,-144 2118.28,-114.375 1912.9,-100.679 1795.68,-94.85"/>
<polygon fill="green" stroke="green" points="1795.81,-91.3526 1785.66,-94.3602 1795.47,-98.3442 1795.81,-91.3526"/>
</g>
<!-- openvswitch&#45;switch.service -->
<g id="node20" class="node"><title>openvswitch&#45;switch.service</title>
<ellipse fill="none" stroke="black" cx="2542.94" cy="-162" rx="108.581" ry="18"/>
<text text-anchor="middle" x="2542.94" y="-158.3" font-family="Times,serif" font-size="14.00">openvswitch&#45;switch.service</text>
</g>
<!-- openvswitch&#45;switch.service&#45;&gt;network&#45;online.target -->
<g id="edge19" class="edge"><title>openvswitch&#45;switch.service&#45;&gt;network&#45;online.target</title>
<path fill="none" stroke="green" d="M2466.89,-149.147C2453.28,-147.254 2439.21,-145.446 2425.94,-144 2199.97,-119.355 1933.08,-103.153 1794.72,-95.7133"/>
<polygon fill="green" stroke="green" points="1794.75,-92.21 1784.57,-95.1713 1794.37,-99.2 1794.75,-92.21"/>
</g>
<!-- npcd.service -->
<g id="node21" class="node"><title>npcd.service</title>
<ellipse fill="none" stroke="black" cx="2724.94" cy="-162" rx="55.4913" ry="18"/>
<text text-anchor="middle" x="2724.94" y="-158.3" font-family="Times,serif" font-size="14.00">npcd.service</text>
</g>
<!-- npcd.service&#45;&gt;network&#45;online.target -->
<g id="edge20" class="edge"><title>npcd.service&#45;&gt;network&#45;online.target</title>
<path fill="none" stroke="green" d="M2685.61,-149.202C2677.52,-147.157 2669.01,-145.279 2660.94,-144 2496.51,-117.904 2005.43,-100.296 1796.61,-93.7933"/>
<polygon fill="green" stroke="green" points="1796.68,-90.294 1786.58,-93.4827 1796.47,-97.2906 1796.68,-90.294"/>
</g>
<!-- pnp_gearman_worker.service -->
<g id="node22" class="node"><title>pnp_gearman_worker.service</title>
<ellipse fill="none" stroke="black" cx="2913.94" cy="-162" rx="115.88" ry="18"/>
<text text-anchor="middle" x="2913.94" y="-158.3" font-family="Times,serif" font-size="14.00">pnp_gearman_worker.service</text>
</g>
<!-- pnp_gearman_worker.service&#45;&gt;network&#45;online.target -->
<g id="edge21" class="edge"><title>pnp_gearman_worker.service&#45;&gt;network&#45;online.target</title>
<path fill="none" stroke="green" d="M2833.37,-149C2818.62,-147.099 2803.34,-145.327 2788.94,-144 2423.74,-110.335 1987.48,-97.26 1797.4,-92.899"/>
<polygon fill="green" stroke="green" points="1797.23,-89.3945 1787.16,-92.667 1797.08,-96.3927 1797.23,-89.3945"/>
</g>
<!-- docker.service -->
<g id="node23" class="node"><title>docker.service</title>
<ellipse fill="none" stroke="black" cx="3108.94" cy="-162" rx="61.99" ry="18"/>
<text text-anchor="middle" x="3108.94" y="-158.3" font-family="Times,serif" font-size="14.00">docker.service</text>
</g>
<!-- docker.service&#45;&gt;network&#45;online.target -->
<g id="edge22" class="edge"><title>docker.service&#45;&gt;network&#45;online.target</title>
<path fill="none" stroke="green" d="M3065.51,-149.038C3056.78,-147.033 3047.61,-145.212 3038.94,-144 2799.11,-110.466 2063.45,-96.4111 1797.86,-92.3401"/>
<polygon fill="green" stroke="green" points="1797.52,-88.8346 1787.47,-92.1822 1797.41,-95.8338 1797.52,-88.8346"/>
</g>
<!-- smbd.service -->
<g id="node24" class="node"><title>smbd.service</title>
<ellipse fill="none" stroke="black" cx="3246.94" cy="-162" rx="57.6901" ry="18"/>
<text text-anchor="middle" x="3246.94" y="-158.3" font-family="Times,serif" font-size="14.00">smbd.service</text>
</g>
<!-- smbd.service&#45;&gt;network&#45;online.target -->
<g id="edge23" class="edge"><title>smbd.service&#45;&gt;network&#45;online.target</title>
<path fill="none" stroke="green" d="M3206.12,-149.175C3197.54,-147.104 3188.5,-145.224 3179.94,-144 2911.9,-105.638 2082.68,-94.5181 1798.03,-91.7862"/>
<polygon fill="green" stroke="green" points="1797.76,-88.2836 1787.73,-91.6887 1797.7,-95.2833 1797.76,-88.2836"/>
</g>
<!-- apt&#45;daily.service -->
<g id="node25" class="node"><title>apt&#45;daily.service</title>
<ellipse fill="none" stroke="black" cx="3391.94" cy="-162" rx="69.5877" ry="18"/>
<text text-anchor="middle" x="3391.94" y="-158.3" font-family="Times,serif" font-size="14.00">apt&#45;daily.service</text>
</g>
<!-- apt&#45;daily.service&#45;&gt;network&#45;online.target -->
<g id="edge24" class="edge"><title>apt&#45;daily.service&#45;&gt;network&#45;online.target</title>
<path fill="none" stroke="green" d="M3343.5,-149.014C3333.77,-147.011 3323.57,-145.197 3313.94,-144 3018.06,-107.205 2099.27,-94.9582 1797.83,-91.8741"/>
<polygon fill="green" stroke="green" points="1797.83,-88.3741 1787.8,-91.7725 1797.76,-95.3737 1797.83,-88.3741"/>
</g>
</g>
</svg>
