<?xml version="1.0" encoding="UTF-8" standalone="no"?>
<!DOCTYPE svg PUBLIC "-//W3C//DTD SVG 1.1//EN"
 "http://www.w3.org/Graphics/SVG/1.1/DTD/svg11.dtd">
<!-- Generated by graphviz version 2.38.0 (20140413.2041)
 -->
<!-- Title: systemd Pages: 1 -->
<svg width="1419pt" height="188pt"
 viewBox="0.00 0.00 1419.19 188.00" xmlns="http://www.w3.org/2000/svg" xmlns:xlink="http://www.w3.org/1999/xlink">
<g id="graph0" class="graph" transform="scale(1 1) rotate(0) translate(4 184)">
<title>systemd</title>
<polygon fill="white" stroke="none" points="-4,4 -4,-184 1415.19,-184 1415.19,4 -4,4"/>
<!-- network&#45;online.target -->
<g id="node1" class="node"><title>network&#45;online.target</title>
<ellipse fill="none" stroke="black" cx="569.144" cy="-162" rx="87.1846" ry="18"/>
<text text-anchor="middle" x="569.144" y="-158.3" font-family="Times,serif" font-size="14.00">network&#45;online.target</text>
</g>
<!-- networking.service -->
<g id="node2" class="node"><title>networking.service</title>
<ellipse fill="none" stroke="black" cx="742.144" cy="-90" rx="77.9862" ry="18"/>
<text text-anchor="middle" x="742.144" y="-86.3" font-family="Times,serif" font-size="14.00">networking.service</text>
</g>
<!-- network&#45;online.target&#45;&gt;networking.service -->
<g id="edge1" class="edge"><title>network&#45;online.target&#45;&gt;networking.service</title>
<path fill="none" stroke="green" d="M607.109,-145.638C633.178,-135.09 667.943,-121.023 695.67,-109.804"/>
<polygon fill="green" stroke="green" points="697.201,-112.961 705.158,-105.965 694.575,-106.472 697.201,-112.961"/>
</g>
<!-- apparmor.service -->
<g id="node3" class="node"><title>apparmor.service</title>
<ellipse fill="none" stroke="black" cx="72.1436" cy="-18" rx="72.2875" ry="18"/>
<text text-anchor="middle" x="72.1436" y="-14.3" font-family="Times,serif" font-size="14.00">apparmor.service</text>
</g>
<!-- networking.service&#45;&gt;apparmor.service -->
<g id="edge2" class="edge"><title>networking.service&#45;&gt;apparmor.service</title>
<path fill="none" stroke="green" d="M666.962,-85.062C554.669,-78.5421 336.683,-63.4216 153.144,-36 146.802,-35.0525 140.21,-33.9188 133.647,-32.6925"/>
<polygon fill="green" stroke="green" points="133.883,-29.1731 123.4,-30.7029 132.549,-36.0448 133.883,-29.1731"/>
</g>
<!-- systemd&#45;sysctl.service -->
<g id="node4" class="node"><title>systemd&#45;sysctl.service</title>
<ellipse fill="none" stroke="black" cx="252.144" cy="-18" rx="90.1842" ry="18"/>
<text text-anchor="middle" x="252.144" y="-14.3" font-family="Times,serif" font-size="14.00">systemd&#45;sysctl.service</text>
</g>
<!-- networking.service&#45;&gt;systemd&#45;sysctl.service -->
<g id="edge3" class="edge"><title>networking.service&#45;&gt;systemd&#45;sysctl.service</title>
<path fill="none" stroke="green" d="M675.454,-80.6241C597.724,-70.7023 465.451,-53.3254 352.144,-36 344.223,-34.7889 335.959,-33.4713 327.724,-32.1233"/>
<polygon fill="green" stroke="green" points="328.155,-28.6471 317.718,-30.4691 327.013,-35.5534 328.155,-28.6471"/>
</g>
<!-- systemd&#45;modules&#45;load.service -->
<g id="node5" class="node"><title>systemd&#45;modules&#45;load.service</title>
<ellipse fill="none" stroke="black" cx="479.144" cy="-18" rx="118.079" ry="18"/>
<text text-anchor="middle" x="479.144" y="-14.3" font-family="Times,serif" font-size="14.00">systemd&#45;modules&#45;load.service</text>
</g>
<!-- networking.service&#45;&gt;systemd&#45;modules&#45;load.service -->
<g id="edge4" class="edge"><title>networking.service&#45;&gt;systemd&#45;modules&#45;load.service</title>
<path fill="none" stroke="green" d="M692.984,-75.9157C651.292,-64.8189 591.122,-48.8041 545.222,-36.5873"/>
<polygon fill="green" stroke="green" points="545.925,-33.1528 535.361,-33.9629 544.125,-39.9173 545.925,-33.1528"/>
</g>
<!-- system.slice -->
<g id="node6" class="node"><title>system.slice</title>
<ellipse fill="none" stroke="black" cx="669.144" cy="-18" rx="53.8905" ry="18"/>
<text text-anchor="middle" x="669.144" y="-14.3" font-family="Times,serif" font-size="14.00">system.slice</text>
</g>
<!-- networking.service&#45;&gt;system.slice -->
<g id="edge5" class="edge"><title>networking.service&#45;&gt;system.slice</title>
<path fill="none" stroke="green" d="M724.844,-72.411C715.503,-63.4546 703.818,-52.2495 693.566,-42.4185"/>
<polygon fill="green" stroke="green" points="695.708,-39.6235 686.068,-35.2285 690.863,-44.6759 695.708,-39.6235"/>
</g>
<!-- resolvconf.service -->
<g id="node7" class="node"><title>resolvconf.service</title>
<ellipse fill="none" stroke="black" cx="816.144" cy="-18" rx="75.2868" ry="18"/>
<text text-anchor="middle" x="816.144" y="-14.3" font-family="Times,serif" font-size="14.00">resolvconf.service</text>
</g>
<!-- networking.service&#45;&gt;resolvconf.service -->
<g id="edge6" class="edge"><title>networking.service&#45;&gt;resolvconf.service</title>
<path fill="none" stroke="green" d="M759.681,-72.411C769.013,-63.5834 780.654,-52.5715 790.937,-42.8437"/>
<polygon fill="green" stroke="green" points="793.617,-45.1272 798.476,-35.7125 788.806,-40.0419 793.617,-45.1272"/>
</g>
<!-- local&#45;fs.target -->
<g id="node8" class="node"><title>local&#45;fs.target</title>
<ellipse fill="none" stroke="black" cx="969.144" cy="-18" rx="59.5901" ry="18"/>
<text text-anchor="middle" x="969.144" y="-14.3" font-family="Times,serif" font-size="14.00">local&#45;fs.target</text>
</g>
<!-- networking.service&#45;&gt;local&#45;fs.target -->
<g id="edge7" class="edge"><title>networking.service&#45;&gt;local&#45;fs.target</title>
<path fill="none" stroke="green" d="M786.991,-75.1703C825.108,-63.4163 879.771,-46.5598 919.259,-34.3828"/>
<polygon fill="green" stroke="green" points="920.428,-37.6851 928.953,-31.3937 918.365,-30.9959 920.428,-37.6851"/>
</g>
<!-- systemd&#45;journald.socket -->
<g id="node9" class="node"><title>systemd&#45;journald.socket</title>
<ellipse fill="none" stroke="black" cx="1144.14" cy="-18" rx="96.6831" ry="18"/>
<text text-anchor="middle" x="1144.14" y="-14.3" font-family="Times,serif" font-size="14.00">systemd&#45;journald.socket</text>
</g>
<!-- networking.service&#45;&gt;systemd&#45;journald.socket -->
<g id="edge8" class="edge"><title>networking.service&#45;&gt;systemd&#45;journald.socket</title>
<path fill="none" stroke="green" d="M802.327,-78.5203C872.55,-66.2924 988.856,-46.0401 1066,-32.6075"/>
<polygon fill="green" stroke="green" points="1066.89,-36.0045 1076.14,-30.8408 1065.69,-29.1083 1066.89,-36.0045"/>
</g>
<!-- network&#45;pre.target -->
<g id="node10" class="node"><title>network&#45;pre.target</title>
<ellipse fill="none" stroke="black" cx="1335.14" cy="-18" rx="76.0865" ry="18"/>
<text text-anchor="middle" x="1335.14" y="-14.3" font-family="Times,serif" font-size="14.00">network&#45;pre.target</text>
</g>
<!-- networking.service&#45;&gt;network&#45;pre.target -->
<g id="edge9" class="edge"><title>networking.service&#45;&gt;network&#45;pre.target</title>
<path fill="none" stroke="green" d="M815.183,-83.537C914.117,-75.6459 1096.07,-59.3929 1250.14,-36 1256.84,-34.9831 1263.81,-33.7982 1270.75,-32.5358"/>
<polygon fill="green" stroke="green" points="1271.68,-35.9231 1280.86,-30.6413 1270.39,-29.0428 1271.68,-35.9231"/>
</g>
<!-- shutdown.target -->
<g id="node11" class="node"><title>shutdown.target</title>
<ellipse fill="none" stroke="black" cx="742.144" cy="-162" rx="67.6881" ry="18"/>
<text text-anchor="middle" x="742.144" y="-158.3" font-family="Times,serif" font-size="14.00">shutdown.target</text>
</g>
<!-- shutdown.target&#45;&gt;networking.service -->
<g id="edge10" class="edge"><title>shutdown.target&#45;&gt;networking.service</title>
<path fill="none" stroke="green" d="M742.144,-143.697C742.144,-135.983 742.144,-126.712 742.144,-118.112"/>
<polygon fill="green" stroke="green" points="745.644,-118.104 742.144,-108.104 738.644,-118.104 745.644,-118.104"/>
</g>
<!-- network.target -->
<g id="node12" class="node"><title>network.target</title>
<ellipse fill="none" stroke="black" cx="889.144" cy="-162" rx="61.99" ry="18"/>
<text text-anchor="middle" x="889.144" y="-158.3" font-family="Times,serif" font-size="14.00">network.target</text>
</g>
<!-- network.target&#45;&gt;networking.service -->
<g id="edge11" class="edge"><title>network.target&#45;&gt;networking.service</title>
<path fill="none" stroke="green" d="M858.328,-146.326C836.699,-136.027 807.525,-122.134 783.822,-110.847"/>
<polygon fill="green" stroke="green" points="785.236,-107.644 774.703,-106.504 782.227,-113.964 785.236,-107.644"/>
</g>
</g>
</svg>
