<?xml version="1.0" encoding="UTF-8" standalone="no"?>
<!DOCTYPE svg PUBLIC "-//W3C//DTD SVG 1.1//EN"
 "http://www.w3.org/Graphics/SVG/1.1/DTD/svg11.dtd">
<!-- Generated by graphviz version 2.38.0 (20140413.2041)
 -->
<!-- Title: systemd Pages: 1 -->
<svg width="1084pt" height="188pt"
 viewBox="0.00 0.00 1084.44 188.00" xmlns="http://www.w3.org/2000/svg" xmlns:xlink="http://www.w3.org/1999/xlink">
<g id="graph0" class="graph" transform="scale(1 1) rotate(0) translate(4 184)">
<title>systemd</title>
<polygon fill="white" stroke="none" points="-4,4 -4,-184 1080.44,-184 1080.44,4 -4,4"/>
<!-- multi&#45;user.target -->
<g id="node1" class="node"><title>multi&#45;user.target</title>
<ellipse fill="none" stroke="black" cx="528.092" cy="-162" rx="69.5877" ry="18"/>
<text text-anchor="middle" x="528.092" y="-158.3" font-family="Times,serif" font-size="14.00">multi&#45;user.target</text>
</g>
<!-- nginx.service -->
<g id="node2" class="node"><title>nginx.service</title>
<ellipse fill="none" stroke="black" cx="605.092" cy="-90" rx="57.6901" ry="18"/>
<text text-anchor="middle" x="605.092" y="-86.3" font-family="Times,serif" font-size="14.00">nginx.service</text>
</g>
<!-- multi&#45;user.target&#45;&gt;nginx.service -->
<g id="edge1" class="edge"><title>multi&#45;user.target&#45;&gt;nginx.service</title>
<path fill="none" stroke="green" d="M546.34,-144.411C556.289,-135.367 568.76,-124.03 579.65,-114.13"/>
<polygon fill="green" stroke="green" points="582.196,-116.545 587.241,-107.228 577.487,-111.365 582.196,-116.545"/>
</g>
<!-- network&#45;online.target -->
<g id="node4" class="node"><title>network&#45;online.target</title>
<ellipse fill="none" stroke="black" cx="87.0923" cy="-18" rx="87.1846" ry="18"/>
<text text-anchor="middle" x="87.0923" y="-14.3" font-family="Times,serif" font-size="14.00">network&#45;online.target</text>
</g>
<!-- nginx.service&#45;&gt;network&#45;online.target -->
<g id="edge3" class="edge"><title>nginx.service&#45;&gt;network&#45;online.target</title>
<path fill="none" stroke="green" d="M551.348,-83.1274C471.045,-74.1545 315.056,-55.9582 183.092,-36 175.502,-34.8521 167.589,-33.5774 159.704,-32.2568"/>
<polygon fill="green" stroke="green" points="160.205,-28.7918 149.76,-30.5657 159.031,-35.6927 160.205,-28.7918"/>
</g>
<!-- sysinit.target -->
<g id="node5" class="node"><title>sysinit.target</title>
<ellipse fill="none" stroke="black" cx="248.092" cy="-18" rx="55.7903" ry="18"/>
<text text-anchor="middle" x="248.092" y="-14.3" font-family="Times,serif" font-size="14.00">sysinit.target</text>
</g>
<!-- nginx.service&#45;&gt;sysinit.target -->
<g id="edge4" class="edge"><title>nginx.service&#45;&gt;sysinit.target</title>
<path fill="none" stroke="green" d="M554.74,-81.0595C496.359,-71.5759 397.356,-54.6379 313.092,-36 308.494,-34.9829 303.729,-33.8638 298.965,-32.7001"/>
<polygon fill="green" stroke="green" points="299.791,-29.2988 289.24,-30.2674 298.092,-36.0896 299.791,-29.2988"/>
</g>
<!-- systemd&#45;journald.socket -->
<g id="node6" class="node"><title>systemd&#45;journald.socket</title>
<ellipse fill="none" stroke="black" cx="419.092" cy="-18" rx="96.6831" ry="18"/>
<text text-anchor="middle" x="419.092" y="-14.3" font-family="Times,serif" font-size="14.00">systemd&#45;journald.socket</text>
</g>
<!-- nginx.service&#45;&gt;systemd&#45;journald.socket -->
<g id="edge5" class="edge"><title>nginx.service&#45;&gt;systemd&#45;journald.socket</title>
<path fill="none" stroke="green" d="M569.669,-75.6688C541.299,-64.992 501.145,-49.8799 469.435,-37.9464"/>
<polygon fill="green" stroke="green" points="470.48,-34.6 459.888,-34.3533 468.015,-41.1514 470.48,-34.6"/>
</g>
<!-- nss&#45;lookup.target -->
<g id="node7" class="node"><title>nss&#45;lookup.target</title>
<ellipse fill="none" stroke="black" cx="605.092" cy="-18" rx="71.4873" ry="18"/>
<text text-anchor="middle" x="605.092" y="-14.3" font-family="Times,serif" font-size="14.00">nss&#45;lookup.target</text>
</g>
<!-- nginx.service&#45;&gt;nss&#45;lookup.target -->
<g id="edge6" class="edge"><title>nginx.service&#45;&gt;nss&#45;lookup.target</title>
<path fill="none" stroke="green" d="M605.092,-71.6966C605.092,-63.9827 605.092,-54.7125 605.092,-46.1124"/>
<polygon fill="green" stroke="green" points="608.592,-46.1043 605.092,-36.1043 601.592,-46.1044 608.592,-46.1043"/>
</g>
<!-- remote&#45;fs.target -->
<g id="node8" class="node"><title>remote&#45;fs.target</title>
<ellipse fill="none" stroke="black" cx="762.092" cy="-18" rx="67.6881" ry="18"/>
<text text-anchor="middle" x="762.092" y="-14.3" font-family="Times,serif" font-size="14.00">remote&#45;fs.target</text>
</g>
<!-- nginx.service&#45;&gt;remote&#45;fs.target -->
<g id="edge7" class="edge"><title>nginx.service&#45;&gt;remote&#45;fs.target</title>
<path fill="none" stroke="green" d="M636.864,-74.8345C660.724,-64.196 693.641,-49.5198 719.738,-37.8839"/>
<polygon fill="green" stroke="green" points="721.307,-41.0165 729.015,-33.7476 718.457,-34.6232 721.307,-41.0165"/>
</g>
<!-- system.slice -->
<g id="node9" class="node"><title>system.slice</title>
<ellipse fill="none" stroke="black" cx="902.092" cy="-18" rx="53.8905" ry="18"/>
<text text-anchor="middle" x="902.092" y="-14.3" font-family="Times,serif" font-size="14.00">system.slice</text>
</g>
<!-- nginx.service&#45;&gt;system.slice -->
<g id="edge8" class="edge"><title>nginx.service&#45;&gt;system.slice</title>
<path fill="none" stroke="green" d="M651.399,-79.0959C698.701,-68.8419 774.204,-52.0961 839.092,-36 843.236,-34.9721 847.525,-33.8784 851.827,-32.7605"/>
<polygon fill="green" stroke="green" points="853.046,-36.0589 861.826,-30.128 851.264,-29.2896 853.046,-36.0589"/>
</g>
<!-- basic.target -->
<g id="node10" class="node"><title>basic.target</title>
<ellipse fill="none" stroke="black" cx="1025.09" cy="-18" rx="51.1914" ry="18"/>
<text text-anchor="middle" x="1025.09" y="-14.3" font-family="Times,serif" font-size="14.00">basic.target</text>
</g>
<!-- nginx.service&#45;&gt;basic.target -->
<g id="edge9" class="edge"><title>nginx.service&#45;&gt;basic.target</title>
<path fill="none" stroke="green" d="M658.851,-83.2953C729.559,-75.2889 857.457,-59.0694 965.092,-36 969.201,-35.1194 973.443,-34.115 977.684,-33.0447"/>
<polygon fill="green" stroke="green" points="978.734,-36.3875 987.512,-30.4546 976.95,-29.6186 978.734,-36.3875"/>
</g>
<!-- shutdown.target -->
<g id="node3" class="node"><title>shutdown.target</title>
<ellipse fill="none" stroke="black" cx="683.092" cy="-162" rx="67.6881" ry="18"/>
<text text-anchor="middle" x="683.092" y="-158.3" font-family="Times,serif" font-size="14.00">shutdown.target</text>
</g>
<!-- shutdown.target&#45;&gt;nginx.service -->
<g id="edge2" class="edge"><title>shutdown.target&#45;&gt;nginx.service</title>
<path fill="none" stroke="green" d="M664.607,-144.411C654.53,-135.367 641.897,-124.03 630.865,-114.13"/>
<polygon fill="green" stroke="green" points="632.956,-111.303 623.175,-107.228 628.28,-116.512 632.956,-111.303"/>
</g>
</g>
</svg>
