<?xml version="1.0" encoding="UTF-8" standalone="no"?>
<!DOCTYPE svg PUBLIC "-//W3C//DTD SVG 1.1//EN"
 "http://www.w3.org/Graphics/SVG/1.1/DTD/svg11.dtd">
<!-- Generated by graphviz version 2.38.0 (20140413.2041)
 -->
<!-- Title: systemd Pages: 1 -->
<svg width="1181pt" height="188pt"
 viewBox="0.00 0.00 1181.39 188.00" xmlns="http://www.w3.org/2000/svg" xmlns:xlink="http://www.w3.org/1999/xlink">
<g id="graph0" class="graph" transform="scale(1 1) rotate(0) translate(4 184)">
<title>systemd</title>
<polygon fill="white" stroke="none" points="-4,4 -4,-184 1177.39,-184 1177.39,4 -4,4"/>
<!-- apache2.service -->
<g id="node1" class="node"><title>apache2.service</title>
<ellipse fill="none" stroke="black" cx="66.9441" cy="-162" rx="66.8882" ry="18"/>
<text text-anchor="middle" x="66.9441" y="-158.3" font-family="Times,serif" font-size="14.00">apache2.service</text>
</g>
<!-- nss&#45;lookup.target -->
<g id="node2" class="node"><title>nss&#45;lookup.target</title>
<ellipse fill="none" stroke="black" cx="579.944" cy="-90" rx="71.4873" ry="18"/>
<text text-anchor="middle" x="579.944" y="-86.3" font-family="Times,serif" font-size="14.00">nss&#45;lookup.target</text>
</g>
<!-- apache2.service&#45;&gt;nss&#45;lookup.target -->
<g id="edge1" class="edge"><title>apache2.service&#45;&gt;nss&#45;lookup.target</title>
<path fill="none" stroke="green" d="M115.454,-149.395C124.556,-147.432 134.016,-145.536 142.944,-144 268.643,-122.374 416.176,-106.42 503.653,-97.9334"/>
<polygon fill="green" stroke="green" points="504.137,-101.403 513.756,-96.9606 503.466,-94.4353 504.137,-101.403"/>
</g>
<!-- bind9.service -->
<g id="node5" class="node"><title>bind9.service</title>
<ellipse fill="none" stroke="black" cx="579.944" cy="-18" rx="57.6901" ry="18"/>
<text text-anchor="middle" x="579.944" y="-14.3" font-family="Times,serif" font-size="14.00">bind9.service</text>
</g>
<!-- nss&#45;lookup.target&#45;&gt;bind9.service -->
<g id="edge4" class="edge"><title>nss&#45;lookup.target&#45;&gt;bind9.service</title>
<path fill="none" stroke="green" d="M579.944,-71.6966C579.944,-63.9827 579.944,-54.7125 579.944,-46.1124"/>
<polygon fill="green" stroke="green" points="583.444,-46.1043 579.944,-36.1043 576.444,-46.1044 583.444,-46.1043"/>
</g>
<!-- postfix@&#45;.service -->
<g id="node3" class="node"><title>postfix@&#45;.service</title>
<ellipse fill="none" stroke="black" cx="224.944" cy="-162" rx="73.387" ry="18"/>
<text text-anchor="middle" x="224.944" y="-158.3" font-family="Times,serif" font-size="14.00">postfix@&#45;.service</text>
</g>
<!-- postfix@&#45;.service&#45;&gt;nss&#45;lookup.target -->
<g id="edge2" class="edge"><title>postfix@&#45;.service&#45;&gt;nss&#45;lookup.target</title>
<path fill="none" stroke="green" d="M279.398,-149.769C288.91,-147.83 298.713,-145.845 307.944,-144 378.672,-129.866 459.843,-114.11 514.97,-103.479"/>
<polygon fill="green" stroke="green" points="515.795,-106.884 524.952,-101.555 514.47,-100.011 515.795,-106.884"/>
</g>
<!-- isc&#45;dhcp&#45;server.service -->
<g id="node4" class="node"><title>isc&#45;dhcp&#45;server.service</title>
<ellipse fill="none" stroke="black" cx="408.944" cy="-162" rx="92.0841" ry="18"/>
<text text-anchor="middle" x="408.944" y="-158.3" font-family="Times,serif" font-size="14.00">isc&#45;dhcp&#45;server.service</text>
</g>
<!-- isc&#45;dhcp&#45;server.service&#45;&gt;nss&#45;lookup.target -->
<g id="edge3" class="edge"><title>isc&#45;dhcp&#45;server.service&#45;&gt;nss&#45;lookup.target</title>
<path fill="none" stroke="green" d="M446.895,-145.465C472.86,-134.836 507.403,-120.695 534.785,-109.486"/>
<polygon fill="green" stroke="green" points="536.217,-112.682 544.146,-105.654 533.565,-106.204 536.217,-112.682"/>
</g>
<!-- exim4.service -->
<g id="node6" class="node"><title>exim4.service</title>
<ellipse fill="none" stroke="black" cx="579.944" cy="-162" rx="60.3893" ry="18"/>
<text text-anchor="middle" x="579.944" y="-158.3" font-family="Times,serif" font-size="14.00">exim4.service</text>
</g>
<!-- exim4.service&#45;&gt;nss&#45;lookup.target -->
<g id="edge5" class="edge"><title>exim4.service&#45;&gt;nss&#45;lookup.target</title>
<path fill="none" stroke="green" d="M579.944,-143.697C579.944,-135.983 579.944,-126.712 579.944,-118.112"/>
<polygon fill="green" stroke="green" points="583.444,-118.104 579.944,-108.104 576.444,-118.104 583.444,-118.104"/>
</g>
<!-- nginx.service -->
<g id="node7" class="node"><title>nginx.service</title>
<ellipse fill="none" stroke="black" cx="715.944" cy="-162" rx="57.6901" ry="18"/>
<text text-anchor="middle" x="715.944" y="-158.3" font-family="Times,serif" font-size="14.00">nginx.service</text>
</g>
<!-- nginx.service&#45;&gt;nss&#45;lookup.target -->
<g id="edge6" class="edge"><title>nginx.service&#45;&gt;nss&#45;lookup.target</title>
<path fill="none" stroke="green" d="M687.434,-146.326C667.533,-136.083 640.727,-122.285 618.863,-111.032"/>
<polygon fill="green" stroke="green" points="620.322,-107.847 609.829,-106.382 617.119,-114.071 620.322,-107.847"/>
</g>
<!-- openvswitch&#45;switch.service -->
<g id="node8" class="node"><title>openvswitch&#45;switch.service</title>
<ellipse fill="none" stroke="black" cx="899.944" cy="-162" rx="108.581" ry="18"/>
<text text-anchor="middle" x="899.944" y="-158.3" font-family="Times,serif" font-size="14.00">openvswitch&#45;switch.service</text>
</g>
<!-- openvswitch&#45;switch.service&#45;&gt;nss&#45;lookup.target -->
<g id="edge7" class="edge"><title>openvswitch&#45;switch.service&#45;&gt;nss&#45;lookup.target</title>
<path fill="none" stroke="green" d="M837.104,-147.254C780.613,-134.896 698.114,-116.85 641.897,-104.552"/>
<polygon fill="green" stroke="green" points="642.583,-101.12 632.066,-102.402 641.087,-107.958 642.583,-101.12"/>
</g>
<!-- opendkim.service -->
<g id="node9" class="node"><title>opendkim.service</title>
<ellipse fill="none" stroke="black" cx="1099.94" cy="-162" rx="73.387" ry="18"/>
<text text-anchor="middle" x="1099.94" y="-158.3" font-family="Times,serif" font-size="14.00">opendkim.service</text>
</g>
<!-- opendkim.service&#45;&gt;nss&#45;lookup.target -->
<g id="edge8" class="edge"><title>opendkim.service&#45;&gt;nss&#45;lookup.target</title>
<path fill="none" stroke="green" d="M1047.13,-149.371C1037.45,-147.433 1027.41,-145.552 1017.94,-144 891.43,-123.269 743.12,-106.991 655.594,-98.2044"/>
<polygon fill="green" stroke="green" points="655.787,-94.7063 645.489,-97.1961 655.092,-101.672 655.787,-94.7063"/>
</g>
</g>
</svg>
