<?xml version="1.0" encoding="UTF-8" standalone="no"?>
<!DOCTYPE svg PUBLIC "-//W3C//DTD SVG 1.1//EN"
 "http://www.w3.org/Graphics/SVG/1.1/DTD/svg11.dtd">
<!-- Generated by graphviz version 2.38.0 (20140413.2041)
 -->
<!-- Title: systemd Pages: 1 -->
<svg width="770pt" height="188pt"
 viewBox="0.00 0.00 770.44 188.00" xmlns="http://www.w3.org/2000/svg" xmlns:xlink="http://www.w3.org/1999/xlink">
<g id="graph0" class="graph" transform="scale(1 1) rotate(0) translate(4 184)">
<title>systemd</title>
<polygon fill="white" stroke="none" points="-4,4 -4,-184 766.438,-184 766.438,4 -4,4"/>
<!-- shorewall.service -->
<g id="node1" class="node"><title>shorewall.service</title>
<ellipse fill="none" stroke="black" cx="374.092" cy="-90" rx="72.2875" ry="18"/>
<text text-anchor="middle" x="374.092" y="-86.3" font-family="Times,serif" font-size="14.00">shorewall.service</text>
</g>
<!-- network&#45;online.target -->
<g id="node2" class="node"><title>network&#45;online.target</title>
<ellipse fill="none" stroke="black" cx="87.0923" cy="-18" rx="87.1846" ry="18"/>
<text text-anchor="middle" x="87.0923" y="-14.3" font-family="Times,serif" font-size="14.00">network&#45;online.target</text>
</g>
<!-- shorewall.service&#45;&gt;network&#45;online.target -->
<g id="edge1" class="edge"><title>shorewall.service&#45;&gt;network&#45;online.target</title>
<path fill="none" stroke="green" d="M324.428,-76.8868C276.348,-65.1599 203.241,-47.3289 150.877,-34.5571"/>
<polygon fill="green" stroke="green" points="151.567,-31.1231 141.023,-32.1538 149.909,-37.9237 151.567,-31.1231"/>
</g>
<!-- system.slice -->
<g id="node3" class="node"><title>system.slice</title>
<ellipse fill="none" stroke="black" cx="246.092" cy="-18" rx="53.8905" ry="18"/>
<text text-anchor="middle" x="246.092" y="-14.3" font-family="Times,serif" font-size="14.00">system.slice</text>
</g>
<!-- shorewall.service&#45;&gt;system.slice -->
<g id="edge2" class="edge"><title>shorewall.service&#45;&gt;system.slice</title>
<path fill="none" stroke="green" d="M345.367,-73.2906C326.574,-63.0137 301.882,-49.5098 281.824,-38.5409"/>
<polygon fill="green" stroke="green" points="283.426,-35.4277 272.973,-33.7003 280.067,-41.5693 283.426,-35.4277"/>
</g>
<!-- sysinit.target -->
<g id="node4" class="node"><title>sysinit.target</title>
<ellipse fill="none" stroke="black" cx="374.092" cy="-18" rx="55.7903" ry="18"/>
<text text-anchor="middle" x="374.092" y="-14.3" font-family="Times,serif" font-size="14.00">sysinit.target</text>
</g>
<!-- shorewall.service&#45;&gt;sysinit.target -->
<g id="edge3" class="edge"><title>shorewall.service&#45;&gt;sysinit.target</title>
<path fill="none" stroke="green" d="M374.092,-71.6966C374.092,-63.9827 374.092,-54.7125 374.092,-46.1124"/>
<polygon fill="green" stroke="green" points="377.592,-46.1043 374.092,-36.1043 370.592,-46.1044 377.592,-46.1043"/>
</g>
<!-- systemd&#45;journald.socket -->
<g id="node5" class="node"><title>systemd&#45;journald.socket</title>
<ellipse fill="none" stroke="black" cx="545.092" cy="-18" rx="96.6831" ry="18"/>
<text text-anchor="middle" x="545.092" y="-14.3" font-family="Times,serif" font-size="14.00">systemd&#45;journald.socket</text>
</g>
<!-- shorewall.service&#45;&gt;systemd&#45;journald.socket -->
<g id="edge4" class="edge"><title>shorewall.service&#45;&gt;systemd&#45;journald.socket</title>
<path fill="none" stroke="green" d="M409.939,-74.3257C435.345,-63.9257 469.702,-49.8616 497.417,-38.5162"/>
<polygon fill="green" stroke="green" points="498.989,-41.6546 506.918,-34.627 496.337,-35.1764 498.989,-41.6546"/>
</g>
<!-- basic.target -->
<g id="node6" class="node"><title>basic.target</title>
<ellipse fill="none" stroke="black" cx="711.092" cy="-18" rx="51.1914" ry="18"/>
<text text-anchor="middle" x="711.092" y="-14.3" font-family="Times,serif" font-size="14.00">basic.target</text>
</g>
<!-- shorewall.service&#45;&gt;basic.target -->
<g id="edge5" class="edge"><title>shorewall.service&#45;&gt;basic.target</title>
<path fill="none" stroke="green" d="M432.501,-79.3469C488.776,-69.6881 576.171,-53.7457 651.092,-36 655.122,-35.0455 659.287,-33.9967 663.457,-32.9032"/>
<polygon fill="green" stroke="green" points="664.39,-36.2765 673.134,-30.2935 662.568,-29.518 664.39,-36.2765"/>
</g>
<!-- shutdown.target -->
<g id="node7" class="node"><title>shutdown.target</title>
<ellipse fill="none" stroke="black" cx="374.092" cy="-162" rx="67.6881" ry="18"/>
<text text-anchor="middle" x="374.092" y="-158.3" font-family="Times,serif" font-size="14.00">shutdown.target</text>
</g>
<!-- shutdown.target&#45;&gt;shorewall.service -->
<g id="edge6" class="edge"><title>shutdown.target&#45;&gt;shorewall.service</title>
<path fill="none" stroke="green" d="M374.092,-143.697C374.092,-135.983 374.092,-126.712 374.092,-118.112"/>
<polygon fill="green" stroke="green" points="377.592,-118.104 374.092,-108.104 370.592,-118.104 377.592,-118.104"/>
</g>
</g>
</svg>
