<?xml version="1.0" encoding="UTF-8" standalone="no"?>
<!DOCTYPE svg PUBLIC "-//W3C//DTD SVG 1.1//EN"
 "http://www.w3.org/Graphics/SVG/1.1/DTD/svg11.dtd">
<!-- Generated by graphviz version 2.38.0 (20140413.2041)
 -->
<!-- Title: systemd Pages: 1 -->
<svg width="340pt" height="188pt"
 viewBox="0.00 0.00 340.29 188.00" xmlns="http://www.w3.org/2000/svg" xmlns:xlink="http://www.w3.org/1999/xlink">
<g id="graph0" class="graph" transform="scale(1 1) rotate(0) translate(4 184)">
<title>systemd</title>
<polygon fill="white" stroke="none" points="-4,4 -4,-184 336.286,-184 336.286,4 -4,4"/>
<!-- dhclient@eth1.service -->
<g id="node1" class="node"><title>dhclient@eth1.service</title>
<ellipse fill="none" stroke="black" cx="89.692" cy="-162" rx="89.8845" ry="18"/>
<text text-anchor="middle" x="89.692" y="-158.3" font-family="Times,serif" font-size="14.00">dhclient@eth1.service</text>
</g>
<!-- system&#45;dhclient.slice -->
<g id="node2" class="node"><title>system&#45;dhclient.slice</title>
<ellipse fill="none" stroke="black" cx="176.692" cy="-90" rx="85.2851" ry="18"/>
<text text-anchor="middle" x="176.692" y="-86.3" font-family="Times,serif" font-size="14.00">system&#45;dhclient.slice</text>
</g>
<!-- dhclient@eth1.service&#45;&gt;system&#45;dhclient.slice -->
<g id="edge1" class="edge"><title>dhclient@eth1.service&#45;&gt;system&#45;dhclient.slice</title>
<path fill="none" stroke="green" d="M110.31,-144.411C121.604,-135.324 135.775,-123.922 148.12,-113.989"/>
<polygon fill="green" stroke="green" points="150.324,-116.708 155.921,-107.713 145.935,-111.254 150.324,-116.708"/>
</g>
<!-- system.slice -->
<g id="node3" class="node"><title>system.slice</title>
<ellipse fill="none" stroke="black" cx="176.692" cy="-18" rx="53.8905" ry="18"/>
<text text-anchor="middle" x="176.692" y="-14.3" font-family="Times,serif" font-size="14.00">system.slice</text>
</g>
<!-- system&#45;dhclient.slice&#45;&gt;system.slice -->
<g id="edge2" class="edge"><title>system&#45;dhclient.slice&#45;&gt;system.slice</title>
<path fill="none" stroke="green" d="M176.692,-71.6966C176.692,-63.9827 176.692,-54.7125 176.692,-46.1124"/>
<polygon fill="green" stroke="green" points="180.192,-46.1043 176.692,-36.1043 173.192,-46.1044 180.192,-46.1043"/>
</g>
<!-- shutdown.target -->
<g id="node4" class="node"><title>shutdown.target</title>
<ellipse fill="none" stroke="black" cx="264.692" cy="-162" rx="67.6881" ry="18"/>
<text text-anchor="middle" x="264.692" y="-158.3" font-family="Times,serif" font-size="14.00">shutdown.target</text>
</g>
<!-- shutdown.target&#45;&gt;system&#45;dhclient.slice -->
<g id="edge3" class="edge"><title>shutdown.target&#45;&gt;system&#45;dhclient.slice</title>
<path fill="none" stroke="green" d="M244.282,-144.765C232.786,-135.621 218.241,-124.05 205.591,-113.988"/>
<polygon fill="green" stroke="green" points="207.607,-111.12 197.603,-107.633 203.25,-116.598 207.607,-111.12"/>
</g>
</g>
</svg>
